<svg width="18" height="19" viewBox="0 0 18 19" fill="none" xmlns="http://www.w3.org/2000/svg">
<path d="M15.875 1.7793H13.8125V1.0918C13.8125 0.909461 13.7401 0.734592 13.6111 0.605661C13.4822 0.47673 13.3073 0.404297 13.125 0.404297C12.9427 0.404297 12.7678 0.47673 12.6389 0.605661C12.5099 0.734592 12.4375 0.909461 12.4375 1.0918V1.7793H5.5625V1.0918C5.5625 0.909461 5.49007 0.734592 5.36114 0.605661C5.2322 0.47673 5.05734 0.404297 4.875 0.404297C4.69266 0.404297 4.5178 0.47673 4.38886 0.605661C4.25993 0.734592 4.1875 0.909461 4.1875 1.0918V1.7793H2.125C1.76033 1.7793 1.41059 1.92416 1.15273 2.18202C0.894866 2.43989 0.75 2.78962 0.75 3.1543V16.9043C0.75 17.269 0.894866 17.6187 1.15273 17.8766C1.41059 18.1344 1.76033 18.2793 2.125 18.2793H15.875C16.2397 18.2793 16.5894 18.1344 16.8473 17.8766C17.1051 17.6187 17.25 17.269 17.25 16.9043V3.1543C17.25 2.78962 17.1051 2.43989 16.8473 2.18202C16.5894 1.92416 16.2397 1.7793 15.875 1.7793ZM4.1875 3.1543V3.8418C4.1875 4.02413 4.25993 4.199 4.38886 4.32793C4.5178 4.45686 4.69266 4.5293 4.875 4.5293C5.05734 4.5293 5.2322 4.45686 5.36114 4.32793C5.49007 4.199 5.5625 4.02413 5.5625 3.8418V3.1543H12.4375V3.8418C12.4375 4.02413 12.5099 4.199 12.6389 4.32793C12.7678 4.45686 12.9427 4.5293 13.125 4.5293C13.3073 4.5293 13.4822 4.45686 13.6111 4.32793C13.7401 4.199 13.8125 4.02413 13.8125 3.8418V3.1543H15.875V5.9043H2.125V3.1543H4.1875ZM15.875 16.9043H2.125V7.2793H15.875V16.9043Z" fill="#7098D5"/>
</svg>
