<svg width="18" height="19" viewBox="0 0 18 19" fill="none" xmlns="http://www.w3.org/2000/svg">
<g clip-path="url(#clip0_707_5659)">
<path d="M15.8105 4.18989L15.5712 3.95061L12.4382 0.81768L12.199 0.578405C12.0907 0.470094 11.9405 0.407715 11.7868 0.407715H2.78C2.41194 0.407715 2.01562 0.691991 2.01562 1.31578V12.5112V17.6433V17.787C2.01562 18.0468 2.27694 18.3 2.58604 18.3798C2.60156 18.3838 2.61645 18.3897 2.63259 18.3928C2.681 18.4024 2.73035 18.4077 2.78 18.4077H15.2168C15.2664 18.4077 15.3158 18.4024 15.3642 18.3928C15.3803 18.3897 15.3952 18.3838 15.4107 18.3798C15.7198 18.3 15.9811 18.0468 15.9811 17.787V17.6433V12.5112V4.74571C15.9811 4.50768 15.9526 4.33203 15.8105 4.18989ZM14.8748 4.13185H12.257V1.51409L14.8748 4.13185ZM2.78 17.787C2.75797 17.787 2.73811 17.779 2.71856 17.7718C2.67014 17.7489 2.63631 17.7004 2.63631 17.6433V13.1319H15.3605V17.6433C15.3605 17.7004 15.3266 17.7485 15.2782 17.7718C15.2587 17.779 15.2388 17.787 15.2168 17.787H2.78ZM2.63631 12.5112V1.31578C2.63631 1.24844 2.64656 1.0284 2.78 1.0284H11.6543C11.6441 1.06751 11.6363 1.10785 11.6363 1.14975V4.75254H15.2391C15.281 4.75254 15.321 4.74478 15.3601 4.73454C15.3601 4.7392 15.3605 4.74106 15.3605 4.74571V12.5112H2.63631Z" fill="black"/>
<path d="M6.83921 14.2938C6.73586 14.2091 6.61917 14.1451 6.48914 14.1029C6.35911 14.0604 6.22752 14.0393 6.09469 14.0393H5.19531V17.1663H5.70459V16.0376H6.08228C6.24614 16.0376 6.39635 16.0137 6.53197 15.9656C6.66759 15.9175 6.78366 15.8495 6.87986 15.762C6.97607 15.6745 7.05086 15.5662 7.10486 15.4374C7.15855 15.3086 7.18555 15.1652 7.18555 15.0067C7.18555 14.8568 7.15359 14.7218 7.08997 14.6013C7.02635 14.4809 6.94255 14.3788 6.83921 14.2938ZM6.64617 15.3269C6.61483 15.4132 6.57417 15.4802 6.52328 15.5283C6.47238 15.5764 6.41652 15.6112 6.35569 15.6323C6.29486 15.6534 6.23311 15.6643 6.17104 15.6643H5.70428V14.4254H6.086C6.21604 14.4254 6.32062 14.4459 6.40007 14.4868C6.47921 14.5278 6.54066 14.5787 6.58473 14.6395C6.62848 14.7003 6.65735 14.764 6.67162 14.8304C6.68559 14.8968 6.69273 14.9554 6.69273 15.0063C6.69273 15.1339 6.67721 15.2407 6.64617 15.3269Z" fill="black"/>
<path d="M9.91332 14.4974C9.78173 14.359 9.61632 14.2475 9.41677 14.1644C9.21722 14.0812 8.98601 14.0393 8.72315 14.0393H7.78125V17.1663H8.96491C9.00432 17.1663 9.06515 17.1614 9.14739 17.1514C9.22932 17.1415 9.31994 17.1192 9.41894 17.0835C9.51794 17.0481 9.62035 16.995 9.72649 16.9243C9.83263 16.8535 9.92791 16.7567 10.0129 16.6335C10.098 16.5103 10.1678 16.3576 10.223 16.1751C10.2783 15.9926 10.3059 15.7726 10.3059 15.5153C10.3059 15.3285 10.2733 15.1466 10.2085 14.97C10.143 14.7938 10.0449 14.6361 9.91332 14.4974ZM9.54215 16.4619C9.38946 16.6825 9.14056 16.7927 8.79546 16.7927H8.29053V14.4251H8.58753C8.83084 14.4251 9.02884 14.457 9.18153 14.5207C9.33422 14.5843 9.45525 14.6678 9.54432 14.7711C9.63339 14.8744 9.69328 14.9896 9.72463 15.1168C9.75566 15.2441 9.77118 15.3729 9.77118 15.5029C9.77118 15.9215 9.69484 16.2415 9.54215 16.4619Z" fill="black"/>
<path d="M11.0469 17.1663H11.5645V15.7577H12.8714V15.4098H11.5645V14.4254H13.0027V14.0393H11.0469V17.1663Z" fill="black"/>
<path d="M11.9248 7.53357C11.6396 7.53357 11.2895 7.57081 10.8826 7.64467C10.3147 7.04198 9.72195 6.16185 9.3036 5.29785C9.71853 3.55091 9.51091 3.30357 9.41936 3.18688C9.32191 3.06274 9.18443 2.86133 9.02801 2.86133C8.96253 2.86133 8.78377 2.89112 8.7127 2.91471C8.53394 2.97429 8.43774 3.11209 8.36077 3.29178C8.14136 3.80478 8.44239 4.67933 8.75212 5.3534C8.48739 6.4064 8.04329 7.66671 7.57653 8.6896C6.40032 9.22836 5.7756 9.7575 5.71912 10.2624C5.69863 10.4462 5.74208 10.7158 6.06515 10.9582C6.1536 11.0243 6.25726 11.0594 6.36526 11.0594C6.63681 11.0594 6.91115 10.8515 7.22863 10.4055C7.46015 10.0803 7.70874 9.63678 7.96819 9.08623C8.79929 8.72281 9.82746 8.39447 10.7079 8.21043C11.1983 8.68122 11.6374 8.91957 12.0148 8.91957C12.2928 8.91957 12.5312 8.79171 12.7037 8.54995C12.8834 8.29826 12.9244 8.07295 12.8248 7.8796C12.7053 7.64716 12.4108 7.53357 11.9248 7.53357ZM6.37208 10.5355C6.22684 10.4241 6.23522 10.349 6.23832 10.3208C6.25757 10.1482 6.52788 9.84191 7.19108 9.46919C6.68832 10.3977 6.41832 10.5209 6.37208 10.5355ZM8.91691 3.42181C8.93026 3.41747 9.24122 3.7635 8.9467 4.41988C8.50415 3.96709 8.8865 3.43205 8.91691 3.42181ZM8.27543 8.3954C8.59043 7.64467 8.88339 6.81574 9.10529 6.04795C9.45381 6.67422 9.87246 7.28188 10.2914 7.7685C9.62915 7.92398 8.92405 8.1434 8.27543 8.3954ZM12.2792 8.24674C12.1836 8.3805 11.9763 8.3836 11.9037 8.3836C11.7383 8.3836 11.6765 8.28522 11.4236 8.09064C11.6321 8.06395 11.8289 8.05712 11.9856 8.05712C12.2615 8.05712 12.3121 8.09778 12.3503 8.11826C12.3434 8.14029 12.3254 8.18188 12.2792 8.24674Z" fill="black"/>
</g>
<defs>
<clipPath id="clip0_707_5659">
<rect width="18" height="18" fill="white" transform="translate(0 0.407715)"/>
</clipPath>
</defs>
</svg>
