<svg width="21" height="13" viewBox="0 0 21 13" fill="none" xmlns="http://www.w3.org/2000/svg">
<path d="M20.0298 6.04766C20.0016 5.98594 19.3201 4.51797 17.8049 3.04688C15.786 1.08672 13.236 0.0507812 10.4294 0.0507812C7.6227 0.0507812 5.07273 1.08672 3.05384 3.04688C1.53866 4.51797 0.853896 5.98828 0.828951 6.04766C0.79235 6.12759 0.773438 6.21409 0.773438 6.30156C0.773438 6.38904 0.79235 6.47554 0.828951 6.55547C0.857114 6.61719 1.53866 8.08438 3.05384 9.55547C5.07273 11.5148 7.6227 12.5508 10.4294 12.5508C13.236 12.5508 15.786 11.5148 17.8049 9.55547C19.3201 8.08438 20.0016 6.61719 20.0298 6.55547C20.0664 6.47554 20.0853 6.38904 20.0853 6.30156C20.0853 6.21409 20.0664 6.12759 20.0298 6.04766ZM10.4294 11.3008C7.95261 11.3008 5.78888 10.4266 3.9977 8.70312C3.26276 7.99351 2.6375 7.18434 2.14135 6.30078C2.63736 5.41714 3.26264 4.60795 3.9977 3.89844C5.78888 2.175 7.95261 1.30078 10.4294 1.30078C12.9061 1.30078 15.0698 2.175 16.861 3.89844C17.5974 4.60778 18.224 5.41697 18.7214 6.30078C18.1412 7.35234 15.6138 11.3008 10.4294 11.3008ZM10.4294 2.55078C9.66545 2.55078 8.9187 2.77072 8.28354 3.18277C7.64837 3.59483 7.15332 4.1805 6.86099 4.86572C6.56866 5.55094 6.49217 6.30494 6.6412 7.03237C6.79023 7.7598 7.15809 8.42799 7.69825 8.95243C8.23841 9.47688 8.92662 9.83403 9.67585 9.97873C10.4251 10.1234 11.2017 10.0492 11.9074 9.76533C12.6132 9.4815 13.2164 9.00085 13.6408 8.38417C14.0652 7.76749 14.2917 7.04246 14.2917 6.30078C14.2907 5.30654 13.8834 4.35331 13.1593 3.65027C12.4352 2.94724 11.4534 2.55182 10.4294 2.55078ZM10.4294 8.80078C9.92009 8.80078 9.42225 8.65416 8.99881 8.37946C8.57537 8.10475 8.24534 7.7143 8.05045 7.25749C7.85556 6.80067 7.80457 6.29801 7.90392 5.81306C8.00327 5.3281 8.24851 4.88265 8.60862 4.53301C8.96873 4.18338 9.42753 3.94528 9.92702 3.84882C10.4265 3.75235 10.9442 3.80186 11.4147 3.99108C11.8852 4.1803 12.2874 4.50073 12.5703 4.91186C12.8533 5.32298 13.0043 5.80633 13.0043 6.30078C13.0043 6.96382 12.733 7.59971 12.2501 8.06855C11.7672 8.53739 11.1123 8.80078 10.4294 8.80078Z" fill="#7098D5"/>
</svg>
