<svg width="24" height="21" viewBox="0 0 24 21" fill="none" xmlns="http://www.w3.org/2000/svg">
<path d="M23.0491 17.103L14.1675 1.67866C13.9456 1.30077 13.6287 0.987445 13.2484 0.769738C12.868 0.55203 12.4374 0.4375 11.9991 0.4375C11.5609 0.4375 11.1303 0.55203 10.7499 0.769738C10.3696 0.987445 10.0527 1.30077 9.83078 1.67866L0.949136 17.103C0.735587 17.4685 0.623047 17.8842 0.623047 18.3075C0.623047 18.7308 0.735587 19.1465 0.949136 19.512C1.16824 19.8922 1.48454 20.2072 1.8656 20.4248C2.24665 20.6424 2.67873 20.7546 3.1175 20.7501H20.8808C21.3192 20.7543 21.7509 20.6418 22.1315 20.4243C22.5122 20.2067 22.8282 19.8919 23.0471 19.512C23.261 19.1467 23.3739 18.7311 23.3742 18.3078C23.3746 17.8844 23.2624 17.4686 23.0491 17.103ZM21.6405 18.6985C21.563 18.8306 21.4519 18.9397 21.3184 19.0147C21.1849 19.0896 21.0339 19.1277 20.8808 19.1251H3.1175C2.96442 19.1277 2.81339 19.0896 2.67989 19.0147C2.5464 18.9397 2.43524 18.8306 2.35781 18.6985C2.28767 18.5798 2.25068 18.4444 2.25068 18.3065C2.25068 18.1686 2.28767 18.0332 2.35781 17.9144L11.2394 2.49014C11.3184 2.35869 11.4301 2.24992 11.5636 2.17441C11.6971 2.0989 11.8478 2.05921 12.0012 2.05921C12.1545 2.05921 12.3053 2.0989 12.4388 2.17441C12.5722 2.24992 12.6839 2.35869 12.7629 2.49014L21.6445 17.9144C21.714 18.0335 21.7503 18.1691 21.7496 18.307C21.7489 18.4449 21.7112 18.5801 21.6405 18.6985ZM11.1866 12.6251V8.56257C11.1866 8.34708 11.2722 8.14042 11.4246 7.98804C11.577 7.83567 11.7836 7.75007 11.9991 7.75007C12.2146 7.75007 12.4213 7.83567 12.5737 7.98804C12.726 8.14042 12.8116 8.34708 12.8116 8.56257V12.6251C12.8116 12.8406 12.726 13.0472 12.5737 13.1996C12.4213 13.352 12.2146 13.4376 11.9991 13.4376C11.7836 13.4376 11.577 13.352 11.4246 13.1996C11.2722 13.0472 11.1866 12.8406 11.1866 12.6251ZM13.2179 16.2813C13.2179 16.5224 13.1464 16.758 13.0125 16.9584C12.8786 17.1588 12.6882 17.3151 12.4655 17.4073C12.2428 17.4995 11.9978 17.5237 11.7614 17.4766C11.525 17.4296 11.3078 17.3135 11.1374 17.1431C10.9669 16.9727 10.8508 16.7555 10.8038 16.5191C10.7568 16.2827 10.7809 16.0376 10.8732 15.8149C10.9654 15.5922 11.1216 15.4019 11.322 15.268C11.5225 15.134 11.7581 15.0626 11.9991 15.0626C12.3224 15.0626 12.6324 15.191 12.8609 15.4195C13.0895 15.6481 13.2179 15.9581 13.2179 16.2813Z" fill="#FF0000"/>
</svg>
