<svg width="20" height="20" viewBox="0 0 20 20" fill="none" xmlns="http://www.w3.org/2000/svg">
<path d="M2.19552 9.50478L8.19532 3.20513C8.32041 3.07379 8.49007 3 8.66697 3C8.84388 3 9.01353 3.07379 9.13862 3.20513C9.26371 3.33647 9.33399 3.51461 9.33399 3.70035C9.33399 3.8861 9.26371 4.06423 9.13862 4.19557L4.27628 9.30004L17.3334 9.30004C17.5102 9.30004 17.6797 9.37378 17.8047 9.50505C17.9298 9.63632 18 9.81436 18 10C18 10.1856 17.9298 10.3637 17.8047 10.4949C17.6797 10.6262 17.5102 10.7 17.3334 10.7L4.27628 10.7L9.13862 15.8044C9.26371 15.9358 9.33399 16.1139 9.33399 16.2996C9.33399 16.4854 9.26371 16.6635 9.13862 16.7949C9.01353 16.9262 8.84388 17 8.66697 17C8.49007 17 8.32041 16.9262 8.19532 16.7949L2.19552 10.4952C2.13353 10.4302 2.08436 10.353 2.05081 10.268C2.01727 10.1831 2 10.092 2 10C2 9.90802 2.01727 9.81693 2.05081 9.73196C2.08436 9.64698 2.13353 9.56979 2.19552 9.50478Z" fill="#7098D5"/>
</svg>
