<svg width="16" height="14" viewBox="0 0 16 14" fill="none" xmlns="http://www.w3.org/2000/svg">
<path d="M0.195517 6.50478L6.19532 0.205128C6.32041 0.0737867 6.49007 0 6.66697 0C6.84388 0 7.01353 0.0737867 7.13862 0.205128C7.26371 0.336469 7.33399 0.514606 7.33399 0.700352C7.33399 0.886096 7.26371 1.06423 7.13862 1.19557L2.27628 6.30004L15.3334 6.30004C15.5102 6.30004 15.6797 6.37378 15.8047 6.50505C15.9298 6.63632 16 6.81436 16 7C16 7.18564 15.9298 7.36368 15.8047 7.49495C15.6797 7.62622 15.5102 7.69996 15.3334 7.69996L2.27628 7.69996L7.13862 12.8044C7.26371 12.9358 7.33399 13.1139 7.33399 13.2996C7.33399 13.4854 7.26371 13.6635 7.13862 13.7949C7.01353 13.9262 6.84388 14 6.66697 14C6.49007 14 6.32041 13.9262 6.19532 13.7949L0.195517 7.49522C0.133534 7.43022 0.084363 7.35302 0.0508146 7.26804C0.0172663 7.18307 0 7.09199 0 7C0 6.90802 0.0172663 6.81693 0.0508146 6.73196C0.084363 6.64698 0.133534 6.56979 0.195517 6.50478Z" fill="#7098D5"/>
</svg>
