<svg width="15" height="14" viewBox="0 0 15 14" fill="none" xmlns="http://www.w3.org/2000/svg">
<path d="M14.1163 13.1091L10.6125 9.66118C11.53 8.66428 12.0938 7.34587 12.0938 5.8951C12.0933 2.79163 9.53711 0.276123 6.38359 0.276123C3.23007 0.276123 0.673828 2.79163 0.673828 5.8951C0.673828 8.99857 3.23007 11.5141 6.38359 11.5141C7.74613 11.5141 8.99582 11.0428 9.97744 10.2593L13.4949 13.7208C13.6663 13.8896 13.9446 13.8896 14.1159 13.7208C14.2877 13.552 14.2877 13.2779 14.1163 13.1091ZM6.38359 10.6496C3.71537 10.6496 1.55235 8.52092 1.55235 5.8951C1.55235 3.26927 3.71537 1.14064 6.38359 1.14064C9.05183 1.14064 11.2148 3.26927 11.2148 5.8951C11.2148 8.52092 9.05183 10.6496 6.38359 10.6496Z" fill="#A3A3A3"/>
</svg>
