<svg width="15" height="14" viewBox="0 0 15 14" fill="none" xmlns="http://www.w3.org/2000/svg">
<path d="M4.06706 13.433H1.62628C1.51043 13.433 1.39932 13.387 1.3174 13.3051C1.23548 13.2232 1.18946 13.1121 1.18946 12.9962V10.5554C1.18926 10.4987 1.20025 10.4425 1.2218 10.39C1.24335 10.3376 1.27503 10.2898 1.31504 10.2496L10.8675 0.697213C10.9081 0.655939 10.9566 0.623162 11.01 0.600789C11.0634 0.578416 11.1208 0.566895 11.1787 0.566895C11.2366 0.566895 11.294 0.578416 11.3474 0.600789C11.4009 0.623162 11.4493 0.655939 11.49 0.697213L13.9253 3.13253C13.9665 3.17318 13.9993 3.22163 14.0217 3.27506C14.0441 3.3285 14.0556 3.38584 14.0556 3.44377C14.0556 3.5017 14.0441 3.55905 14.0217 3.61248C13.9993 3.66592 13.9665 3.71437 13.9253 3.75501L4.37284 13.3074C4.33264 13.3475 4.28493 13.3791 4.23246 13.4007C4.17999 13.4222 4.12379 13.4332 4.06706 13.433Z" stroke="black" stroke-linecap="round" stroke-linejoin="round"/>
<path d="M9.43164 2.1333L12.4894 5.1911" stroke="black" stroke-linecap="round" stroke-linejoin="round"/>
</svg>
