<svg width="16" height="17" viewBox="0 0 16 17" fill="none" xmlns="http://www.w3.org/2000/svg">
<path d="M12.7973 3.57935H2.48926" stroke="black" stroke-linecap="round" stroke-linejoin="round"/>
<path d="M6.23828 6.57935V10.5793" stroke="black" stroke-linecap="round" stroke-linejoin="round"/>
<path d="M9.04883 6.57935V10.5793" stroke="black" stroke-linecap="round" stroke-linejoin="round"/>
<path d="M11.8606 3.57935V13.0793C11.8606 13.212 11.8112 13.3391 11.7234 13.4329C11.6355 13.5267 11.5163 13.5793 11.392 13.5793H3.8953C3.77104 13.5793 3.65186 13.5267 3.56399 13.4329C3.47612 13.3391 3.42676 13.212 3.42676 13.0793V3.57935" stroke="black" stroke-linecap="round" stroke-linejoin="round"/>
<path d="M9.98722 3.57935V2.57935C9.98722 2.31413 9.88849 2.05978 9.71275 1.87224C9.53701 1.6847 9.29866 1.57935 9.05013 1.57935H6.23885C5.99032 1.57935 5.75196 1.6847 5.57623 1.87224C5.40049 2.05978 5.30176 2.31413 5.30176 2.57935V3.57935" stroke="black" stroke-linecap="round" stroke-linejoin="round"/>
</svg>
