<svg width="92" height="82" viewBox="0 0 92 82" fill="none" xmlns="http://www.w3.org/2000/svg">
<g clip-path="url(#clip0_311_1053)">
<path d="M91.1332 50.3173C90.8349 51.8505 90.5989 53.3968 90.2316 54.9124C87.5358 65.9991 81.4163 74.7314 71.6705 80.9647C70.9292 81.4378 70.3059 81.4663 69.5557 80.9845C59.2468 74.3723 53.0026 65.0793 50.6185 53.2413C50.3447 51.8768 50.2089 50.4794 50.0931 49.0908C50.0152 48.1578 50.5806 47.5511 51.3687 47.5336C52.1255 47.5183 52.6509 48.0702 52.7399 48.9507C53.7995 59.5622 58.3074 68.4434 66.526 75.4455C67.7971 76.5274 69.1684 77.4977 70.6621 78.6497C72.6789 76.9939 74.7603 75.4936 76.5924 73.7415C82.5316 68.0601 86.2091 61.1391 87.863 53.169C88.0567 52.2294 88.2014 51.2766 88.2815 50.3239C88.3016 50.0896 88.03 49.6778 87.8007 49.599C82.2066 47.6541 76.6013 45.7355 70.9871 43.8387C70.691 43.738 70.2926 43.7884 69.9854 43.8935C66.0207 45.2361 62.065 46.6028 58.107 47.9629C57.8555 48.0483 57.6084 48.1447 57.3501 48.2104C56.4753 48.436 55.8008 48.1381 55.5314 47.4219C55.2665 46.721 55.6116 46.0289 56.482 45.7157C58.3118 45.0587 60.1617 44.4498 62.0026 43.8212C64.5671 42.943 67.1226 42.034 69.7071 41.2105C70.2503 41.0375 70.9515 41.0287 71.488 41.2083C77.5808 43.2474 83.6602 45.3259 89.7307 47.4329C90.2494 47.6125 90.6701 48.0702 91.1376 48.3965V50.3195L91.1332 50.3173Z" fill="#7098D5"/>
<path d="M2.79381 17.0964V18.0338C2.79381 32.4321 2.78936 46.8305 2.81162 61.2266C2.81162 61.9056 2.95409 62.624 3.21899 63.2504C3.55068 64.0389 4.27193 64.5689 5.13787 64.639C6.2754 64.7331 7.42851 64.6631 8.66844 64.6631C8.66844 63.2679 8.66844 61.9056 8.66844 60.5433C8.66844 59.2314 8.67957 57.9195 8.66844 56.6097C8.64173 53.9158 9.9195 52.076 12.4238 51.04C14.4384 50.2056 16.462 49.3886 18.481 48.5629C20.2285 47.8489 20.716 45.7332 19.4894 44.2767C18.0269 42.5355 17.2433 40.5293 17.2099 38.2646C17.1854 36.4577 17.2233 34.6508 17.1988 32.8439C17.1498 29.4469 18.8439 27.0224 21.7667 25.5199C25.8582 23.4173 29.9297 23.6517 33.7007 26.3675C35.7331 27.8305 36.9352 29.839 36.9263 32.3905C36.9152 34.8633 36.9263 37.3426 36.746 39.8065C36.6169 41.5543 35.7153 43.0612 34.5622 44.4016C33.4447 45.7004 33.9812 47.8686 35.5751 48.5235C37.6209 49.3624 39.6689 50.1924 41.7146 51.0335C44.2212 52.0651 45.499 53.8939 45.4789 56.5944C45.4611 58.9554 45.4745 61.3164 45.4745 63.6775C45.4745 63.9907 45.4745 64.3039 45.4745 64.7244C46.9504 64.7244 48.335 64.7244 49.7174 64.7244C51.1109 64.7266 51.8166 65.1887 51.8032 66.0823C51.7921 66.9759 51.0931 67.4183 49.6907 67.4183C35.2345 67.4183 20.7783 67.4205 6.32215 67.4183C3.15221 67.4183 0.952841 65.8283 0.285017 63.0577C0.171487 62.5824 0.147 62.0764 0.147 61.5858C0.133643 43.1028 0.133643 24.6241 0.135869 6.14542C0.138095 2.77252 2.43986 0.466244 5.89474 0.339212C6.07283 0.332642 6.25092 0.337022 6.429 0.337022C28.7343 0.337022 51.0397 0.339212 73.3473 0.332642C75.8538 0.332642 77.9018 1.16711 79.0104 3.48652C79.3977 4.2969 79.5825 5.27372 79.587 6.17608C79.6248 16.9015 79.6114 27.6269 79.6114 38.3522C79.6114 38.4399 79.6114 38.5275 79.6092 38.6151C79.5625 39.5218 79.075 40.0694 78.3047 40.0847C77.5212 40.1 76.9424 39.4999 76.9357 38.5735C76.9179 36.0963 76.929 33.6192 76.929 31.1421C76.929 26.799 76.929 22.4558 76.929 18.1148V17.0964H2.79381ZM22.9332 46.9006C22.6994 48.9616 21.4974 50.2735 19.4627 51.0379C17.477 51.7825 15.5448 52.6674 13.568 53.4361C12.0187 54.0384 11.3219 55.1335 11.3264 56.7346C11.3353 59.1525 11.3264 61.5705 11.3308 63.9885C11.3308 64.2119 11.3687 64.4375 11.3865 64.6434H42.7921C42.7921 61.9494 42.7765 59.3299 42.7987 56.7105C42.8121 55.1291 42.1265 54.0581 40.6238 53.4602C38.6248 52.6652 36.6614 51.7847 34.649 51.0269C32.6122 50.2603 31.4368 48.9243 31.3923 46.767C31.045 46.5983 30.6866 46.502 30.4328 46.2851C29.7005 45.6609 29.8897 44.706 30.8914 44.0489C32.7168 42.8531 33.9679 41.2214 34.1237 39.0772C34.2995 36.6767 34.2439 34.25 34.1393 31.8408C34.0725 30.2945 33.1219 29.1184 31.8442 28.2795C29.1083 26.4814 26.2055 26.3346 23.2604 27.7101C21.3215 28.6146 20.0081 30.1149 19.9168 32.292C19.8211 34.5282 19.8367 36.7797 20.0036 39.0115C20.1617 41.1294 21.3393 42.7677 23.1224 43.9591C23.7101 44.3534 24.3378 44.8024 24.0685 45.5492C23.8815 46.0639 23.325 46.4516 22.9354 46.8962L22.9332 46.9006ZM76.9068 14.2842C76.9068 11.323 76.9713 8.41446 76.8756 5.51245C76.8355 4.31661 76.0052 3.47995 74.8165 3.14923C74.2889 3.00249 73.7012 3.03096 73.1402 3.03096C50.9863 3.02658 28.8345 3.02658 6.68055 3.02658C6.38448 3.02658 6.08841 3.02001 5.79234 3.03315C3.97586 3.11857 2.84724 4.24433 2.79826 6.04686C2.77378 6.97769 2.79381 7.91072 2.79381 8.84374C2.79381 10.6419 2.79381 12.4422 2.79381 14.2842H76.9068Z" fill="#7098D5"/>
<path d="M56.914 32.4233C53.3323 32.4233 49.7483 32.4277 46.1665 32.4233C43.8336 32.419 42.7984 31.4005 42.794 29.1271C42.794 27.9904 42.7873 26.8537 42.794 25.7192C42.8073 23.9013 43.9003 22.7799 45.768 22.7405C47.4843 22.7033 49.2029 22.7317 50.9192 22.7317C56.4866 22.7317 62.0518 22.7317 67.6192 22.7317C70.0835 22.7317 71.0652 23.6976 71.0674 26.1156C71.0674 27.3092 71.0875 28.5051 71.0541 29.6987C71.0118 31.1684 70.1191 32.1912 68.6299 32.3445C67.5169 32.4606 66.3838 32.4168 65.2596 32.4211C62.477 32.4299 59.6922 32.4233 56.9096 32.4233H56.914ZM68.3605 25.5111H45.5276V29.6484H68.3605V25.5111Z" fill="#7098D5"/>
<path d="M69.0348 63.2154C71.7284 60.5586 74.255 58.0662 76.7838 55.576C77.0131 55.3504 77.2335 55.1029 77.4962 54.9189C78.1061 54.4962 78.745 54.5093 79.2659 55.0372C79.7556 55.5343 79.7645 56.1366 79.3705 56.7149C79.2414 56.9054 79.0633 57.0675 78.8964 57.2317C76.0915 59.9936 73.2866 62.7576 70.4773 65.5173C69.4355 66.5401 68.8278 66.5401 67.7838 65.5173C66.083 63.8505 64.3845 62.186 62.6994 60.5061C62.4345 60.2433 62.0516 59.8994 62.0627 59.6059C62.0828 59.1131 62.243 58.4911 62.5836 58.1757C63.1736 57.6282 63.8614 57.9129 64.3934 58.4298C65.7447 59.7395 67.0826 61.058 68.4137 62.3875C68.6408 62.6131 68.8033 62.9022 69.037 63.2197L69.0348 63.2154Z" fill="#7098D5"/>
<path d="M54.1689 35.3276C56.7712 35.3276 59.3735 35.3232 61.9758 35.332C62.3253 35.332 62.6882 35.3626 63.0243 35.4524C63.6387 35.6167 63.9437 36.0525 63.9415 36.6811C63.9392 37.3097 63.6231 37.7368 63.0109 37.901C62.6748 37.9908 62.312 38.0215 61.9625 38.0215C56.7289 38.0281 51.4954 38.0259 46.2619 38.0259C46.115 38.0259 45.9658 38.0325 45.8189 38.0237C44.8528 37.9624 44.2518 37.4652 44.2273 36.714C44.2028 35.9233 44.8194 35.3473 45.8323 35.3385C48.6126 35.3144 51.3908 35.3298 54.1712 35.3298L54.1689 35.3276Z" fill="#7098D5"/>
<path d="M50.6145 43.6218C49.0495 43.6218 47.4846 43.6371 45.9197 43.6174C44.9112 43.6043 44.3213 43.1597 44.2345 42.4128C44.1321 41.5499 44.8311 40.9344 45.9909 40.93C48.7067 40.9147 51.4248 40.9257 54.1428 40.9257C54.4967 40.9257 54.8529 40.9147 55.2069 40.93C56.2665 40.976 56.8275 41.4426 56.8319 42.2683C56.8364 43.0961 56.2776 43.5977 55.2247 43.6174C53.6887 43.6459 52.1527 43.624 50.6167 43.6262L50.6145 43.6218Z" fill="#7098D5"/>
<path d="M46.9538 7.33029C55.1859 7.33029 63.4157 7.33029 71.6478 7.33029C71.9149 7.33029 72.182 7.31496 72.4469 7.33686C73.3641 7.41352 73.8939 7.9085 73.8983 8.67507C73.9028 9.4504 73.3974 9.92567 72.458 10.0111C72.1642 10.0374 71.8659 10.022 71.5698 10.022C55.1658 10.022 38.7618 10.022 22.3601 10.0199C21.9482 10.0199 21.5297 10.0023 21.1246 9.93662C20.4523 9.82492 20.0872 9.38469 20.0583 8.73202C20.0294 8.07277 20.3789 7.61283 21.0311 7.45075C21.3962 7.35876 21.7902 7.33905 22.1709 7.33905C30.4318 7.33248 38.6928 7.33467 46.9538 7.33467V7.33029Z" fill="#7098D5"/>
<path d="M8.48112 8.69049C8.47667 9.40668 7.9246 9.9608 7.19667 9.97613C6.44871 9.99365 5.82541 9.39354 5.83208 8.6642C5.83876 7.97867 6.4398 7.37418 7.13212 7.35447C7.86895 7.33476 8.48557 7.94582 8.48112 8.69049Z" fill="#7098D5"/>
<path d="M12.7416 8.72105C12.7215 9.41753 12.1294 9.9826 11.4193 9.9826C10.6735 9.9826 10.068 9.36934 10.0925 8.63563C10.1148 7.94791 10.7269 7.35217 11.417 7.35217C12.1427 7.35217 12.7638 7.99171 12.7438 8.72105H12.7416Z" fill="#7098D5"/>
<path d="M15.673 9.98043C14.9606 9.97167 14.3729 9.40222 14.3596 8.70793C14.3462 7.97859 14.9718 7.34344 15.6975 7.35439C16.4321 7.36534 17.0353 8.00049 17.0086 8.7364C16.9819 9.43726 16.3898 9.98919 15.6752 9.98043H15.673Z" fill="#7098D5"/>
</g>
<defs>
<clipPath id="clip0_311_1053">
<rect width="91" height="81" fill="white" transform="translate(0.132812 0.332642)"/>
</clipPath>
</defs>
</svg>
