<svg width="82" height="82" viewBox="0 0 82 82" fill="none" xmlns="http://www.w3.org/2000/svg">
<g clip-path="url(#clip0_311_1052)">
<path d="M12.9267 51.1157C13.9337 50.0924 14.9136 49.0848 15.9093 48.0931C18.901 45.1044 22.4933 43.5863 26.7403 43.5953C35.1598 43.6112 43.5794 43.6586 51.9989 43.5682C54.9138 43.5366 57.3997 44.1443 59.1586 46.7512C60.5133 45.502 61.8139 44.307 63.1099 43.1051C65.6703 40.7309 68.2217 38.3453 70.7888 35.9778C72.6809 34.2338 74.8801 33.6578 77.3434 34.4552C79.7728 35.2436 81.2292 36.9673 81.7236 39.4613C82.0623 41.1646 81.7507 42.7979 80.7392 44.2076C76.3703 50.2889 72.06 56.4155 67.542 62.3839C64.7558 66.0616 60.8294 67.8937 56.194 67.9299C48.9305 67.9863 41.6647 67.9479 34.3989 67.9457C33.1097 67.9457 31.974 68.2913 31.1409 69.222C31.4344 69.9427 31.7979 70.5639 31.9334 71.2326C32.2224 72.6445 31.8295 73.9096 30.7977 74.9442C28.8085 76.9367 26.8193 78.9337 24.8211 80.9194C24.1234 81.6129 23.3174 81.6694 22.7348 81.1046C22.132 80.5195 22.1952 79.6882 22.9223 78.9563C24.7895 77.079 26.6658 75.2108 28.5353 73.338C29.5784 72.2921 29.5852 71.7296 28.5669 70.7107C22.8726 65.0112 17.1783 59.3138 11.4839 53.6188C10.4544 52.5886 9.88087 52.5886 8.85354 53.6142C7.05854 55.4057 5.26806 57.1994 3.47532 58.9908C3.33534 59.1308 3.20438 59.2777 3.05536 59.4065C2.41413 59.9667 1.62388 59.969 1.08877 59.42C0.553656 58.8688 0.549141 58.0691 1.15199 57.4569C3.21115 55.3718 5.26129 53.2799 7.37239 51.249C8.82193 49.8552 10.6689 49.8348 12.9267 51.118V51.1157ZM29.1765 67.2747C30.8157 65.6143 32.8749 65.2009 35.1711 65.2212C42.0124 65.2845 48.856 65.2619 55.6996 65.2371C59.9105 65.2213 63.356 63.5608 65.8554 60.1452C70.0257 54.4411 74.1508 48.7053 78.2782 42.9719C79.5448 41.2143 79.3371 39.1044 77.8221 37.7964C76.3296 36.5064 74.1576 36.5878 72.6064 38.0245C68.6371 41.6977 64.6813 45.3845 60.7075 49.051C60.3282 49.4011 60.1634 49.7422 60.1724 50.2821C60.2356 54.0819 57.2417 57.1045 53.4282 57.1226C50.9784 57.1338 48.5286 57.1248 46.0788 57.1248C44.1077 57.1248 42.1366 57.1293 40.1655 57.1248C39.1472 57.1225 38.5782 56.6414 38.5647 55.7987C38.5511 54.9222 39.1314 54.4343 40.2016 54.4252C40.3981 54.4252 40.5968 54.4252 40.7932 54.4252C44.9048 54.4252 49.0163 54.423 53.1279 54.4252C54.1733 54.4252 55.1351 54.179 55.957 53.5126C57.3117 52.4147 57.8129 50.6459 57.2417 49.0261C56.6569 47.3657 55.1509 46.3085 53.2679 46.3085C44.3425 46.2994 35.415 46.2994 26.4897 46.3152C25.7355 46.3152 24.9746 46.4305 24.2273 46.557C20.0841 47.2482 17.5553 50.2528 14.9136 53.0111C19.6709 57.7686 24.3853 62.4833 29.1788 67.2792L29.1765 67.2747Z" fill="#7098D5"/>
<path d="M57.4658 22.4371C56.4814 23.4627 55.576 24.3821 54.7022 25.3309C54.2507 25.8211 53.7404 26.0267 53.0653 26.0222C50.0804 25.9951 47.0932 26.0222 44.1084 25.9996C43.5778 25.9951 43.2571 26.1193 42.9727 26.6141C39.2788 33.0343 32.0266 36.4906 24.8737 35.2707C17.4543 34.0057 11.7623 28.3445 10.3918 20.8715C8.69838 11.6343 15.0813 2.37443 24.3273 0.648518C31.9001 -0.765648 39.1366 2.53709 42.9862 9.19903C43.282 9.70957 43.6229 9.78638 44.1355 9.78638C52.4737 9.77509 60.8097 9.78638 69.148 9.76605C69.9134 9.76605 70.4779 9.98518 71.0107 10.5319C73.0202 12.5876 75.0658 14.6049 77.0934 16.6403C78.0372 17.5891 78.0372 18.1991 77.0866 19.1524C75.0184 21.2285 72.948 23.3023 70.873 25.3693C69.9676 26.2707 69.3331 26.2662 68.4232 25.3535C67.5088 24.4386 66.6102 23.5079 65.5399 22.4145C64.8445 23.1735 64.2236 23.8919 63.5575 24.5651C61.5706 26.5757 61.5232 26.5734 59.4957 24.5402C58.8431 23.8874 58.2132 23.2119 57.4636 22.4348L57.4658 22.4371ZM61.5616 22.794C62.5234 21.8 63.3927 20.8851 64.2801 19.986C65.3029 18.9514 65.8831 18.9559 66.9105 19.9792C67.8181 20.8851 68.7213 21.8 69.516 22.5997C71.1778 20.9416 72.7448 19.3761 74.3704 17.7518C72.8373 16.2269 71.2297 14.6524 69.656 13.0462C69.2496 12.6328 68.8454 12.4656 68.2607 12.4656C59.9247 12.486 51.5886 12.4566 43.2526 12.5018C42.0785 12.5085 41.4283 12.1381 40.8932 11.0763C38.0189 5.3722 31.4508 2.09431 25.323 3.21932C16.8515 4.77581 11.5952 12.4498 13.1983 20.9167C14.6388 28.5184 22.4781 33.9402 30.0577 32.5644C35.0679 31.654 38.7618 28.9386 41.0693 24.3889C41.4644 23.6095 41.9815 23.2842 42.8575 23.2933C45.9553 23.3294 49.0531 23.3249 52.1508 23.2865C52.5437 23.282 53.0156 23.0786 53.3069 22.8098C54.341 21.8565 55.3073 20.8286 56.3121 19.8392C57.152 19.0123 57.8158 19.0033 58.6422 19.8256C59.5815 20.7563 60.5004 21.7097 61.5616 22.7917V22.794Z" fill="#7098D5"/>
<path d="M15.5762 17.8309C15.5829 14.1012 18.6017 11.1215 22.3701 11.1305C26.1113 11.1395 29.094 14.1463 29.0917 17.9054C29.0894 21.6532 26.0865 24.6555 22.343 24.6532C18.5565 24.6509 15.5717 21.6419 15.5784 17.8309H15.5762ZM18.2811 17.8354C18.2562 20.0199 20.0625 21.8881 22.2572 21.9423C24.4563 21.9966 26.3755 20.117 26.3823 17.9009C26.3891 15.7164 24.5692 13.8753 22.3633 13.8369C20.2025 13.8007 18.3059 15.6577 18.2811 17.8354Z" fill="#7098D5"/>
</g>
<defs>
<clipPath id="clip0_311_1052">
<rect width="81.1609" height="81.1609" fill="white" transform="translate(0.691406 0.325439)"/>
</clipPath>
</defs>
</svg>
