<svg width="82" height="82" viewBox="0 0 82 82" fill="none" xmlns="http://www.w3.org/2000/svg">
<g clip-path="url(#clip0_618_1339)">
<path d="M0.107422 13.9519C0.464669 13.5356 0.79655 13.0961 1.18128 12.7094C5.0349 8.84452 8.90754 5.00076 12.7464 1.11896C13.4101 0.446993 14.1098 0.176514 15.0526 0.176514C29.8456 0.197645 44.6407 0.191305 59.4337 0.191305C61.2094 0.191305 61.6596 0.647739 61.6596 2.45023C61.6596 15.8939 61.6596 29.3375 61.6596 42.7833V43.7257C61.7336 43.7912 61.8097 43.8546 61.8837 43.9201C61.9492 43.7617 61.9979 43.5926 62.0867 43.4468C63.4121 41.2661 64.841 39.1445 66.0481 36.9004C67.8322 33.5785 71.5949 31.7655 75.161 32.6974C78.7652 33.6398 81.3125 36.968 81.0969 40.6659C80.9087 43.9054 79.2683 46.2319 76.3343 47.6773C71.5188 50.0503 67.3354 53.3256 63.2577 56.9222C63.4691 57.1525 63.634 57.3427 63.8095 57.5202C64.8262 58.5535 65.8853 59.5488 66.8598 60.6222C69.6205 63.6672 69.6163 68.1407 66.8725 71.1984C66.2383 71.9042 65.5513 72.5613 64.8812 73.2333C63.6298 74.4864 63.1605 74.5202 61.6639 73.3833V74.6005C61.6639 76.0776 61.6174 77.5546 61.6808 79.0275C61.7231 80.0037 61.4123 80.7116 60.5562 81.1786H37.7706C37.667 81.1047 37.5634 81.0286 37.4577 80.9567C36.8214 80.5299 36.5192 79.9403 36.7327 79.1923C36.9525 78.421 37.5127 78.0216 38.3202 78.0195C40.6941 78.0132 43.0659 78.0153 45.4398 78.0153C49.4752 78.0153 53.5085 78.0153 57.5439 78.0153C57.8293 78.0153 58.1146 78.0153 58.4613 78.0153C58.4761 77.711 58.4994 77.4553 58.4994 77.2017C58.5015 75.0928 58.4825 72.984 58.5121 70.8751C58.5205 70.3299 58.3577 69.9516 57.9688 69.567C52.0647 63.6884 46.1754 57.7949 40.284 51.9056C40.1339 51.7556 39.9817 51.6119 39.838 51.4555C39.1192 50.6758 39.0981 49.8326 39.8295 49.0719C40.6138 48.2541 41.4107 47.4469 42.2457 46.6799C45.2622 43.9117 49.7965 43.8504 52.8194 46.6059C54.0814 47.7555 55.189 49.0762 56.4278 50.3842C57.1676 49.5558 57.7764 48.905 58.3408 48.2161C58.4698 48.0597 58.4909 47.7766 58.4909 47.5526C58.4973 33.0017 58.4973 18.4507 58.4951 3.89983C58.4951 3.74768 58.4804 3.59342 58.4719 3.39902H15.9299C15.9299 3.65682 15.9299 3.93152 15.9299 4.20834C15.9299 7.47733 15.9299 10.7463 15.9299 14.0132C15.9299 15.4649 15.3803 16.0059 13.9132 16.008C10.4063 16.0101 6.90146 16.008 3.33322 16.008V78.0132C3.62071 78.0132 3.92511 78.0132 4.23162 78.0132C10.7445 78.0132 17.2574 78.0132 23.7724 78.0153C24.7089 78.0153 25.3155 78.4358 25.5269 79.1902C25.7256 79.8981 25.4212 80.5341 24.6497 81.0286C24.5863 81.0687 24.5334 81.1279 24.4763 81.1765H0.107422C0.107422 58.769 0.107422 36.3594 0.107422 13.9519ZM43.2561 50.1412C49.9572 56.8419 56.6434 63.5256 63.4459 70.3278C63.7313 69.9981 64.0631 69.5903 64.4183 69.2078C66.2003 67.2891 66.2595 64.5061 64.4204 62.6424C59.9199 58.0823 55.3729 53.5686 50.8323 49.0487C49.955 48.1738 48.86 47.7808 47.615 47.7555C45.6343 47.7153 44.3448 48.8691 43.2582 50.139L43.2561 50.1412ZM61.017 54.6315C61.0783 54.5977 61.1565 54.5745 61.2115 54.5238C65.5619 50.6251 70.1976 47.149 75.4612 44.5393C77.0636 43.7448 77.8478 42.2635 77.9408 40.4842C78.0507 38.3626 76.5118 36.3383 74.4423 35.7783C72.2925 35.1972 70.0158 36.2559 68.9145 38.2866C68.0372 39.9031 67.2171 41.5725 66.1538 43.0643C63.8475 46.2953 61.3996 49.4248 59.0131 52.5945C59.5796 53.1693 60.2941 53.8962 61.0191 54.6336L61.017 54.6315ZM5.68809 12.7897H12.6956V5.79952C10.3534 8.13662 8.04296 10.4399 5.68809 12.7897Z" fill="#7098D5"/>
<path d="M30.6464 81.1765C30.5216 81.0878 30.3948 81.0032 30.2701 80.9124C29.6571 80.4644 29.3865 79.8706 29.6253 79.1353C29.86 78.4126 30.3948 78.0111 31.1621 78.028C31.8936 78.0449 32.4009 78.4443 32.6186 79.1353C32.8511 79.8727 32.5869 80.4665 31.9718 80.9124C31.847 81.0032 31.7202 81.0878 31.5955 81.1765H30.6464Z" fill="#7098D5"/>
<path d="M30.8749 29.6123C23.4425 29.6123 16.0101 29.6123 8.57974 29.6123C6.94781 29.6123 6.44048 29.1115 6.43837 27.5034C6.43837 25.6586 6.43202 23.816 6.43837 21.9712C6.44471 20.7245 7.0366 20.1244 8.28168 20.1244C23.3558 20.1202 38.4321 20.1202 53.5062 20.1244C54.7386 20.1244 55.3221 20.733 55.3263 21.9924C55.3326 23.89 55.3326 25.7854 55.3263 27.683C55.3221 29.0354 54.7534 29.6102 53.4048 29.6102C45.8941 29.6144 38.3835 29.6102 30.8707 29.6102L30.8749 29.6123ZM23.267 23.3194V26.3877H52.1259V23.3194H23.2649H23.267ZM9.64091 26.4046H19.9926V23.3427H9.64091V26.4046Z" fill="#7098D5"/>
<path d="M29.6413 67.5744C27.0856 67.5744 24.5553 67.5787 22.0249 67.5681C21.6888 67.5681 21.3316 67.5385 21.0208 67.4223C20.3211 67.1603 19.9322 66.4038 20.0738 65.7001C20.2281 64.9309 20.8581 64.4217 21.7417 64.4174C24.0881 64.4048 26.4345 64.4132 28.783 64.4111C29.0705 64.4111 29.3601 64.4111 29.6349 64.4111C31.0343 59.1537 35.7441 57.5139 39.1263 58.2535C42.7685 59.0501 45.4236 62.3825 45.3559 66.165C45.2883 69.8883 42.5022 73.1446 38.8557 73.7574C34.611 74.4717 31.381 72.3268 29.6392 67.5723L29.6413 67.5744ZM33.0806 67.5744C33.5583 69.5481 35.8371 70.9808 37.9975 70.7124C40.4433 70.406 42.2485 68.3204 42.1936 65.8649C42.1407 63.4982 40.2657 61.4908 37.8981 61.2668C35.7251 61.0618 33.4843 62.5135 33.089 64.4132C34.4652 64.4132 35.835 64.4069 37.2048 64.4153C38.304 64.4217 39.0079 65.0302 39.027 65.9621C39.046 66.9215 38.3188 67.566 37.1879 67.5723C35.8223 67.5808 34.4567 67.5723 33.0785 67.5723L33.0806 67.5744Z" fill="#7098D5"/>
<path d="M30.8976 32.7756C38.2772 32.7756 45.6547 32.7756 53.0343 32.7756C53.2985 32.7756 53.5627 32.7629 53.8249 32.7841C54.6852 32.858 55.3109 33.5089 55.3257 34.3288C55.3405 35.1782 54.6958 35.8587 53.7995 35.9284C53.5902 35.9453 53.3788 35.9368 53.1674 35.9368C38.3047 35.9368 23.4419 35.9368 8.57918 35.9368C8.31494 35.9368 8.04859 35.9516 7.79069 35.9115C6.99164 35.7868 6.41878 35.0874 6.44626 34.3034C6.47163 33.549 7.0466 32.9045 7.81817 32.7989C8.10355 32.7608 8.39738 32.7777 8.68698 32.7777C16.0919 32.7777 23.4969 32.7777 30.9018 32.7777L30.8976 32.7756Z" fill="#7098D5"/>
<path d="M30.889 39.1022C38.2939 39.1022 45.6989 39.1022 53.1038 39.1022C53.3681 39.1022 53.6323 39.0874 53.8944 39.117C54.7062 39.2079 55.3065 39.8608 55.3255 40.649C55.3446 41.4668 54.7315 42.1578 53.886 42.2529C53.626 42.2824 53.3596 42.2655 53.0954 42.2655C38.2855 42.2655 23.4756 42.2655 8.66566 42.2655C7.21131 42.2655 6.46933 41.7478 6.44397 40.7187C6.4186 39.6622 7.19017 39.1022 8.67412 39.1022C16.0791 39.1022 23.484 39.1022 30.889 39.1022Z" fill="#7098D5"/>
<path d="M21.1561 48.5922C16.8882 48.5922 12.6223 48.5922 8.35438 48.5922C7.36085 48.5922 6.79644 48.2499 6.53432 47.5146C6.20878 46.5996 6.80913 45.6064 7.79843 45.4543C8.05632 45.4141 8.32479 45.431 8.58691 45.431C16.9643 45.431 25.3395 45.431 33.7168 45.431C33.9282 45.431 34.1396 45.4226 34.3489 45.4395C35.2135 45.5113 35.8413 46.1495 35.8645 46.9694C35.8878 47.8167 35.2473 48.531 34.3552 48.5796C33.6196 48.6197 32.8797 48.5944 32.1441 48.5944C28.4828 48.5944 24.8216 48.5944 21.1603 48.5944L21.1561 48.5922Z" fill="#7098D5"/>
<path d="M17.998 51.7577C21.2111 51.7577 24.4243 51.7365 27.6352 51.7788C28.1193 51.7851 28.6732 51.9817 29.0642 52.269C29.5589 52.6325 29.6604 53.2411 29.4405 53.8475C29.2122 54.4773 28.7493 54.8407 28.0919 54.902C27.6226 54.9464 27.1448 54.9189 26.6713 54.9189C20.6932 54.9189 14.7173 54.9189 8.73919 54.9189C8.50244 54.9189 8.26357 54.9295 8.02893 54.9147C7.11996 54.8597 6.46465 54.2152 6.44562 53.3679C6.42871 52.4909 7.10093 51.7809 8.04584 51.7661C9.80882 51.7387 11.5739 51.7577 13.339 51.7556C14.8927 51.7556 16.4464 51.7556 18.0001 51.7556L17.998 51.7577Z" fill="#7098D5"/>
<path d="M33.2454 9.68765C33.7696 9.68765 34.296 9.66018 34.8202 9.69399C35.7101 9.74893 36.3528 10.4441 36.338 11.2894C36.3232 12.1072 35.7038 12.7939 34.8477 12.8277C33.7463 12.87 32.6429 12.87 31.5416 12.8299C30.6495 12.7982 30.009 12.0818 30.0217 11.2387C30.0365 10.3955 30.6897 9.73414 31.5923 9.69188C32.1419 9.66441 32.6936 9.68765 33.2454 9.68765C33.2454 9.68765 33.2454 9.68765 33.2454 9.68976V9.68765Z" fill="#7098D5"/>
<path d="M42.6171 12.8404C42.0928 12.8404 41.5665 12.8657 41.0422 12.8341C40.148 12.7791 39.5054 12.0923 39.5118 11.2471C39.5202 10.404 40.1713 9.71932 41.0718 9.69185C42.1478 9.66015 43.2259 9.65592 44.2997 9.69396C45.1939 9.72566 45.8365 10.4314 45.8281 11.2767C45.8196 12.1219 45.1706 12.7876 44.268 12.8341C43.7184 12.8615 43.1667 12.8383 42.615 12.8383L42.6171 12.8404Z" fill="#7098D5"/>
<path d="M52.1996 12.8404C51.6479 12.8404 51.0962 12.8657 50.5466 12.834C49.6503 12.7833 49.0056 12.1008 49.0098 11.2555C49.014 10.4103 49.663 9.72141 50.5614 9.69394C51.6373 9.66013 52.7154 9.66013 53.7893 9.69394C54.6856 9.72352 55.3303 10.423 55.3261 11.2682C55.3219 12.1135 54.675 12.7833 53.7745 12.834C53.2502 12.8636 52.7239 12.8383 52.1996 12.8383V12.8404Z" fill="#7098D5"/>
<path d="M34.3124 51.762C35.1559 51.7746 35.8556 52.4804 35.864 53.3214C35.8725 54.1942 35.1369 54.9274 34.2638 54.9126C33.3908 54.8978 32.6763 54.1413 32.7122 53.2728C32.7482 52.4318 33.4732 51.7472 34.3124 51.762Z" fill="#7098D5"/>
</g>
<defs>
<clipPath id="clip0_618_1339">
<rect width="81" height="81" fill="white" transform="translate(0.107422 0.176514)"/>
</clipPath>
</defs>
</svg>
