<svg width="96" height="62" viewBox="0 0 96 62" fill="none" xmlns="http://www.w3.org/2000/svg">
<path d="M0.150391 6.00331C0.484924 5.17462 0.719597 4.28603 1.17646 3.53222C2.51959 1.31822 4.53927 0.145076 7.13814 0.14258C20.6543 0.125108 34.1704 0.132596 47.6841 0.135092C47.8713 0.135092 48.0611 0.140084 48.2408 0.175029C48.9498 0.312311 49.3293 0.766593 49.3543 1.47048C49.3792 2.17437 49.0397 2.68356 48.3382 2.84081C47.9188 2.93317 47.4719 2.93067 47.04 2.93067C33.9907 2.93566 20.9414 2.93317 7.89459 2.93317C4.50931 2.93317 2.95398 4.50318 2.95398 7.91529C2.95398 17.3803 2.95398 26.8453 2.95398 36.3129C2.95398 39.6251 4.55425 41.2351 7.8846 41.2351C24.7336 41.2401 41.5801 41.2351 58.4291 41.2351C68.2704 41.2351 78.1116 41.2376 87.9529 41.2276C88.6345 41.2276 89.3385 41.2076 89.9901 41.0379C91.7551 40.5811 92.9709 38.9687 93.0208 37.1091C93.0508 35.9884 93.0183 34.8676 93.0333 33.7469C93.0458 32.721 93.5751 32.127 94.4364 32.132C95.3002 32.137 95.8369 32.7235 95.8244 33.7594C95.807 35.282 95.8993 36.8295 95.6572 38.3197C95.1454 41.4897 92.5615 43.7211 89.356 43.9807C88.8916 44.0182 88.4223 44.0356 87.9554 44.0356C61.2976 44.0381 34.6398 44.0282 7.98197 44.0506C4.93122 44.0506 2.50211 43.0347 0.98922 40.2941C0.619736 39.6276 0.427504 38.8613 0.152887 38.1425C0.150391 27.4294 0.150391 16.7164 0.150391 6.00331Z" fill="#7098D5"/>
<path d="M8.55818 35.5716H87.3757V8.60175H8.55818C8.55818 10.1668 8.56318 11.6844 8.55818 13.2045C8.55319 14.3851 8.05888 15.0091 7.14765 15.0016C6.23892 14.9941 5.76208 14.3776 5.75959 13.182C5.75459 11.3449 5.75709 9.50782 5.75959 7.67072C5.75959 6.16061 6.1815 5.73878 7.70437 5.73878C17.9201 5.73628 28.1334 5.73878 38.3491 5.73878C54.886 5.73878 71.423 5.73878 87.9599 5.73878C89.9272 5.73878 90.2243 6.03581 90.2243 8.00769C90.2243 17.4428 90.2243 26.8778 90.2243 36.3104C90.2243 38.0552 89.8473 38.4321 88.0723 38.4321C61.352 38.4321 34.6318 38.4321 7.91158 38.4321C6.13406 38.4321 5.75959 38.0577 5.75959 36.3104C5.75959 31.1411 5.75959 25.9718 5.75959 20.805C5.75959 20.5553 5.73962 20.3032 5.77457 20.0586C5.88192 19.2699 6.36374 18.7981 7.14016 18.7856C7.91907 18.7732 8.41338 19.2349 8.5432 20.0187C8.58814 20.2933 8.56318 20.5778 8.56318 20.8574C8.56318 25.4027 8.56318 29.9505 8.56318 34.4958C8.56318 34.8353 8.56318 35.1747 8.56318 35.5741L8.55818 35.5716Z" fill="#7098D5"/>
<path d="M72.0893 0.130026C77.5068 0.130026 82.9242 0.125034 88.3417 0.130026C92.8978 0.135018 95.8262 3.0529 95.8312 7.59073C95.8362 13.8483 95.8312 20.1059 95.8312 26.3635C95.8312 26.6431 95.8562 26.9326 95.7988 27.2022C95.639 27.9336 95.1497 28.3604 94.4132 28.3504C93.6792 28.3404 93.1949 27.9086 93.0576 27.1698C93.0027 26.8677 93.0301 26.5482 93.0301 26.2387C93.0301 20.0136 93.0301 13.7859 93.0301 7.56077C93.0301 4.62542 91.3375 2.93559 88.3891 2.93559C77.4294 2.9306 66.4697 2.93559 55.51 2.93309C55.138 2.93309 54.761 2.93559 54.3915 2.88816C53.5951 2.78083 53.1557 2.2991 53.1682 1.50036C53.1807 0.701622 53.6351 0.239853 54.4365 0.157483C54.746 0.125034 55.0581 0.137514 55.3702 0.137514C60.9424 0.137514 66.5171 0.137514 72.0893 0.137514V0.130026Z" fill="#7098D5"/>
<path d="M31.5544 28.6101C30.9327 28.6101 30.3086 28.6301 29.687 28.6051C28.7583 28.5677 28.204 28.071 28.1965 27.1624C28.1741 23.7703 28.1741 20.3781 28.1965 16.9885C28.2015 16.0774 28.7533 15.5682 29.6795 15.5408C30.6431 15.5133 31.6093 15.5158 32.5729 15.5408C35.2617 15.6032 36.9968 18.1167 36.0606 20.6277C35.8833 21.102 35.9307 21.3766 36.2553 21.7634C37.3762 23.1038 37.5859 24.6289 36.847 26.2064C36.1055 27.7864 34.7873 28.5627 33.0448 28.6076C32.548 28.6201 32.0487 28.6076 31.5519 28.6076L31.5544 28.6101ZM31.0226 25.7946C31.8315 25.7946 32.5455 25.8495 33.2495 25.7796C33.991 25.7072 34.4254 25.2055 34.4428 24.4667C34.4603 23.7728 34.0883 23.2261 33.3893 23.1413C32.6129 23.0489 31.819 23.1188 31.0226 23.1188V25.7921V25.7946ZM31.0176 20.3033C31.8814 20.0711 32.8226 20.6627 33.3893 19.7242C33.5266 19.4945 33.5041 18.9953 33.3419 18.7857C32.7077 17.9744 31.8315 18.4437 31.0176 18.3613V20.3033Z" fill="#7098D5"/>
<path d="M25.7543 27.3244C25.3823 27.7238 25.0703 28.3478 24.6259 28.4626C24.1715 28.58 23.5873 28.2055 23.068 28.0183C22.9807 27.9859 22.9083 27.8162 22.8933 27.7013C22.6636 26.0714 21.5851 25.8243 20.2145 26.039C20.0622 26.0614 19.9 26.0614 19.7477 26.039C18.4745 25.8593 17.5707 26.1188 17.2686 27.609C17.0964 28.4601 16.2251 28.7821 15.5036 28.5225C14.7322 28.243 14.3777 27.4817 14.7022 26.6206C15.9455 23.3033 17.2087 19.9935 18.477 16.6838C18.7466 15.9824 19.3033 15.4582 20.0298 15.5805C20.5965 15.6779 21.3929 16.0548 21.5801 16.514C22.9657 19.9087 24.2264 23.3532 25.5196 26.7853C25.5621 26.9001 25.5621 27.0299 25.582 27.1522C25.6395 27.2096 25.6969 27.267 25.7568 27.3244H25.7543ZM20.0822 20.313C19.6653 21.4188 19.3432 22.2774 19.0012 23.1885H21.1657C20.8112 22.245 20.4866 21.3888 20.0797 20.313H20.0822Z" fill="#7098D5"/>
<path d="M58.2141 25.7896C59.1154 25.7896 59.8219 25.7696 60.5259 25.7946C61.4347 25.827 61.9739 26.3487 61.9864 27.1524C61.9989 27.9486 61.4546 28.5552 60.5759 28.5727C58.8957 28.6076 57.2105 28.6276 55.5304 28.5677C54.2597 28.5227 53.7029 27.3721 54.4219 26.2988C55.4954 24.6963 56.6438 23.1437 57.7348 21.5513C58.0843 21.0421 58.4114 20.5004 58.6535 19.9338C58.9182 19.3123 58.7634 18.7507 58.0818 18.4761C57.3828 18.1941 56.8635 18.4587 56.539 19.1051C55.9173 20.3457 55.2757 20.7051 54.4419 20.2608C53.6206 19.8215 53.4832 18.9604 54.0525 17.7997C54.9562 15.9526 57.1007 15.104 59.0305 15.8278C60.9853 16.5617 62.0438 18.581 61.3697 20.5903C61.0502 21.5438 60.461 22.4174 59.9293 23.2885C59.4349 24.0972 58.8557 24.856 58.2092 25.7896H58.2141Z" fill="#7098D5"/>
<path d="M76.0423 25.7896C76.9435 25.7896 77.65 25.7696 78.354 25.7946C79.2628 25.827 79.802 26.3487 79.8145 27.1524C79.827 27.9486 79.2828 28.5552 78.404 28.5727C76.7238 28.6076 75.0387 28.6276 73.3585 28.5677C72.0878 28.5227 71.5311 27.3721 72.2501 26.2988C73.3236 24.6963 74.472 23.1437 75.5629 21.5513C75.9125 21.0421 76.2395 20.5004 76.4817 19.9338C76.7463 19.3123 76.5915 18.7507 75.91 18.4761C75.2109 18.1941 74.6917 18.4587 74.3671 19.1051C73.7455 20.3457 73.1039 20.7051 72.27 20.2608C71.4487 19.8215 71.3114 18.9604 71.8806 17.7997C72.7843 15.9526 74.9288 15.104 76.8586 15.8278C78.8134 16.5617 79.8719 18.581 79.1979 20.5903C78.8783 21.5438 78.2891 22.4174 77.7574 23.2885C77.2631 24.0972 76.6839 24.856 76.0373 25.7896H76.0423Z" fill="#7098D5"/>
<path d="M47.9939 18.401C47.6519 18.3786 47.4048 18.3736 47.1601 18.3436C46.3712 18.2463 45.9044 17.797 45.8744 17.0032C45.8444 16.197 46.3113 15.6778 47.0802 15.5955C47.9116 15.5056 48.7654 15.5056 49.5942 15.5955C50.4231 15.6828 50.83 16.2794 50.835 17.0956C50.8475 20.3929 50.855 23.6927 50.835 26.9899C50.8275 27.9759 50.1909 28.6149 49.377 28.5774C48.5881 28.5425 48.0564 27.9335 48.0514 26.9675C48.0339 24.4165 48.0464 21.8656 48.0414 19.3146C48.0414 19.0375 48.0139 18.763 47.9964 18.401H47.9939Z" fill="#7098D5"/>
<path d="M65.824 18.401C65.482 18.3786 65.2348 18.3736 64.9902 18.3436C64.2013 18.2463 63.7344 17.797 63.7045 17.0032C63.6745 16.197 64.1414 15.6778 64.9103 15.5955C65.7416 15.5056 66.5955 15.5056 67.4243 15.5955C68.2531 15.6828 68.6601 16.2794 68.6651 17.0956C68.6775 20.3929 68.685 23.6927 68.6651 26.9899C68.6576 27.9759 68.021 28.6149 67.2071 28.5774C66.4182 28.5425 65.8864 27.9335 65.8814 26.9675C65.864 24.4165 65.8765 21.8656 65.8715 19.3146C65.8715 19.0375 65.844 18.763 65.8265 18.401H65.824Z" fill="#7098D5"/>
<path d="M14.1581 12.7626C14.1382 13.5439 13.4791 14.1429 12.6852 14.1005C11.9362 14.0606 11.352 13.4365 11.3695 12.6952C11.3895 11.9165 12.0536 11.3149 12.845 11.3573C13.5989 11.3973 14.1756 12.0163 14.1581 12.7626Z" fill="#7098D5"/>
<path d="M84.6123 12.7253C84.6148 13.4716 84.0256 14.0782 83.2717 14.1056C82.4803 14.1331 81.8287 13.514 81.8262 12.7353C81.8237 11.9915 82.4179 11.3824 83.1693 11.3575C83.9632 11.33 84.6098 11.944 84.6123 12.7253Z" fill="#7098D5"/>
<path d="M12.7987 30.0377C13.5526 30.0552 14.1518 30.6517 14.1593 31.3981C14.1693 32.1793 13.5277 32.8058 12.7363 32.7884C11.9873 32.7734 11.3807 32.1693 11.3732 31.428C11.3632 30.6492 12.0073 30.0202 12.7987 30.0377Z" fill="#7098D5"/>
<path d="M84.6094 31.4532C84.5869 32.2344 83.9254 32.831 83.1315 32.7861C82.3825 32.7436 81.8008 32.1146 81.8208 31.3758C81.8433 30.597 82.5073 29.998 83.2987 30.0429C84.0527 30.0853 84.6269 30.7068 84.6069 31.4532H84.6094Z" fill="#7098D5"/>
<path d="M71.1069 41.6089L71.2329 41.3581L71.2348 41.3542L71.3225 41.1797L71.4504 41.032C71.576 40.8868 71.7049 40.7574 71.8057 40.658C69.9928 39.3937 68.6676 37.5624 68.4891 35.1414L71.1069 41.6089ZM71.1069 41.6089L71.0756 41.8878M71.1069 41.6089L71.0756 41.8878M71.0756 41.8878C71.0033 42.533 70.7951 42.9834 70.5037 43.3274M71.0756 41.8878L70.5037 43.3274M60.8396 50.8394L60.8396 50.838C60.8371 49.8978 61.0392 48.9729 61.5736 48.164C62.1112 47.3503 62.8936 46.7922 63.8088 46.4321C64.5774 46.1295 65.3391 45.8058 66.1234 45.4725C66.2033 45.4385 66.2835 45.4044 66.364 45.3703C67.2255 45.0044 68.1136 44.6302 69.0198 44.2862L60.8396 50.8394ZM60.8396 50.8394C60.8441 52.0721 60.8435 53.2956 60.8428 54.5229C60.8423 55.4464 60.8419 56.3719 60.8436 57.3051C60.8437 57.5652 60.8906 57.9569 60.8974 58.0143C60.898 58.0186 60.8982 58.021 60.8983 58.0214L61.0209 59.4564M60.8396 50.8394L61.0209 59.4564M61.0209 59.4564H62.4612M61.0209 59.4564H62.4612M62.4612 59.4564H90.1313H91.6999M62.4612 59.4564H91.6999M91.6999 59.4564V57.8878M91.6999 59.4564V57.8878M91.6999 57.8878C91.6999 57.1771 91.6987 56.4746 91.6975 55.7778C91.6947 54.1067 91.6919 52.4681 91.7057 50.8254L91.7057 50.8253M91.6999 57.8878L91.7057 50.8253M91.7057 50.8253C91.7135 49.8923 91.5169 48.9768 90.9928 48.1753C90.466 47.3698 89.6988 46.8174 88.8071 46.4582L88.8068 46.4581M91.7057 50.8253L88.8068 46.4581M88.8068 46.4581C88.1428 46.1907 87.4401 45.8935 86.7225 45.5899C85.6606 45.1407 84.5661 44.6776 83.5156 44.2771L83.5153 44.277M88.8068 46.4581L83.5153 44.277M83.5153 44.277C82.8014 44.005 82.3635 43.6794 82.0993 43.3417C81.8482 43.0207 81.6694 42.5823 81.6557 41.9113L81.6362 40.9568M83.5153 44.277L81.6362 40.9568M81.6362 40.9568L80.8688 40.5795M81.6362 40.9568L80.8688 40.5795M80.8688 40.5795C82.5811 39.3378 83.888 37.5685 84.0585 35.1977C84.2201 32.9637 84.1676 30.7261 84.0748 28.5628C83.987 26.5074 82.7258 25.0593 81.3545 24.1477M80.8688 40.5795L81.3545 24.1477M80.3721 40.9441C80.382 40.9311 80.4195 40.8884 80.5131 40.8262C80.5133 40.826 80.5136 40.8258 80.5138 40.8257L80.4184 40.6819L80.2199 40.383L80.2188 40.3814L79.6461 39.5189L80.2185 40.3819L80.2195 40.3835L80.4185 40.6835C80.4221 40.7379 80.4184 40.7896 80.4091 40.8356C80.3965 40.8987 80.3789 40.9329 80.3721 40.9441ZM80.3721 40.9441C80.3701 40.9468 80.3692 40.9482 80.3693 40.9482C80.3694 40.9482 80.3704 40.9469 80.3721 40.9441ZM81.3545 24.1477C78.4671 22.2265 75.3236 22.0758 72.2529 23.5273L81.3545 24.1477ZM70.5037 43.3274C70.2024 43.6831 69.7362 44.0136 69.02 44.2861L70.5037 43.3274ZM72.2523 23.5276C70.1612 24.5154 68.5207 26.2988 68.4097 28.9662C68.3232 31.0115 68.3368 33.0811 68.489 35.1412L72.2523 23.5276Z" fill="white" stroke="#7098D5" stroke-width="3.13718"/>
</svg>
