<svg width="96" height="59" viewBox="0 0 96 59" fill="none" xmlns="http://www.w3.org/2000/svg">
<g clip-path="url(#clip0_634_368)">
<path d="M94.4287 32.1277C93.5687 32.1277 93.0387 32.7178 93.0287 33.7378C93.0087 34.8577 93.0487 35.9778 93.0187 37.0978C92.9687 38.9578 91.7487 40.5678 89.9887 41.0278C89.3387 41.1978 88.6287 41.2178 87.9487 41.2178C85.5687 41.2178 83.1787 41.2178 80.7987 41.2178C80.8587 41.0478 81.1087 40.6378 81.2287 40.5078L81.7287 39.9578C82.1687 39.4778 82.6287 38.9777 83.0587 38.4277H88.0687C89.8387 38.4277 90.2187 38.0478 90.2187 36.3078V8.00775C90.2187 6.03775 89.9187 5.73775 87.9587 5.73775H38.3487C28.1287 5.73775 17.9187 5.73775 7.70867 5.73775C6.18867 5.73775 5.76867 6.15775 5.76867 7.66775C5.76867 9.50775 5.76867 11.3377 5.76867 13.1777C5.76867 14.3777 6.24867 14.9877 7.15867 14.9977C8.06867 14.9977 8.56867 14.3777 8.56867 13.1977C8.56867 11.6777 8.56867 10.1577 8.56867 8.59775H87.3887V35.5677H84.5787C84.6987 35.1377 84.7987 34.6878 84.8287 34.1978C84.9987 31.8177 84.9387 29.4177 84.8487 27.3877C84.7587 25.1377 83.5387 23.1377 81.4287 21.7277C80.7087 21.2477 79.9587 20.8777 79.2087 20.5877C79.8787 18.5777 78.8287 16.5577 76.8687 15.8277C74.9387 15.1077 72.7987 15.9477 71.8887 17.7977C71.3187 18.9577 71.4587 19.8177 72.2787 20.2577C72.3387 20.2877 72.3987 20.3077 72.4587 20.3377C71.4587 20.6477 70.4787 21.0977 69.5187 21.7277C69.2187 21.9277 68.9387 22.1477 68.6687 22.3777C68.6687 20.6177 68.6687 18.8577 68.6687 17.0977C68.6687 16.2777 68.2587 15.6877 67.4287 15.5977C66.5987 15.5077 65.7487 15.5077 64.9187 15.5977C64.1487 15.6777 63.6787 16.1977 63.7087 17.0077C63.7387 17.7977 64.2087 18.2477 64.9987 18.3477C65.2387 18.3777 65.4887 18.3777 65.8287 18.4077C65.8487 18.7677 65.8787 19.0477 65.8787 19.3177C65.8787 21.8677 65.8787 24.4177 65.8787 26.9677C65.8787 27.2977 65.9587 27.5677 66.0787 27.8077C65.9987 29.7477 65.9487 31.9778 66.1087 34.1978C66.1487 34.6878 66.2387 35.1377 66.3587 35.5677H8.54867V20.8577C8.54867 20.5777 8.56867 20.2977 8.52867 20.0177C8.39867 19.2377 7.90867 18.7677 7.12867 18.7877C6.34867 18.7977 5.86867 19.2677 5.75867 20.0577C5.72867 20.2977 5.73867 20.5577 5.73867 20.8077V36.3177C5.73867 38.0677 6.10867 38.4378 7.88867 38.4378H67.8487C68.2787 38.9878 68.7387 39.4878 69.1787 39.9678L69.6787 40.5177C69.7987 40.6577 70.0487 41.0678 70.1087 41.2378C66.2087 41.2378 62.3087 41.2378 58.4087 41.2378C41.5587 41.2378 24.7087 41.2378 7.86867 41.2378C4.53867 41.2378 2.93867 39.6278 2.93867 36.3177V7.91775C2.93867 4.50775 4.49867 2.93775 7.87867 2.93775C20.9287 2.93775 33.9787 2.93775 47.0287 2.93775C47.4587 2.93775 47.9087 2.93775 48.3287 2.84775C49.0287 2.68775 49.3687 2.17775 49.3487 1.47775C49.3187 0.777749 48.9487 0.317749 48.2387 0.177749C48.0587 0.147749 47.8687 0.137749 47.6787 0.137749C34.1587 0.127749 20.6387 0.127749 7.12867 0.137749C4.52867 0.137749 2.50867 1.31775 1.16867 3.52775C0.708672 4.27775 0.478672 5.16775 0.138672 5.99775C0.138672 16.7077 0.138672 27.4277 0.138672 38.1377C0.408672 38.8577 0.608672 39.6278 0.978672 40.2878C2.48867 43.0278 4.91867 44.0477 7.96867 44.0477C27.3287 44.0277 46.6887 44.0378 66.0487 44.0378C65.7187 44.1777 65.3887 44.3178 65.0587 44.4578C64.3387 44.7578 63.6287 45.0578 62.9187 45.3478C61.0087 46.1178 59.9987 47.6278 60.0187 49.7178C60.0287 51.3577 60.0287 52.9978 60.0187 54.6678V58.3478H75.4487H90.8787V54.6678C90.8787 52.9978 90.8787 51.3577 90.8787 49.7178C90.8987 47.6278 89.8987 46.1178 87.9787 45.3478C87.2687 45.0578 86.5587 44.7578 85.8387 44.4578C85.5087 44.3178 85.1787 44.1777 84.8387 44.0378C85.8687 44.0378 86.8987 44.0378 87.9287 44.0378C88.3987 44.0378 88.8687 44.0177 89.3287 43.9878C92.5387 43.7278 95.1187 41.4977 95.6287 38.3278C95.8687 36.8377 95.7787 35.2878 95.7987 33.7677C95.8087 32.7277 95.2787 32.1477 94.4087 32.1377L94.4287 32.1277ZM74.3587 19.0977C74.6787 18.4477 75.1987 18.1877 75.8987 18.4677C76.5787 18.7377 76.7387 19.3077 76.4687 19.9277C76.3287 19.9177 76.1887 19.8877 76.0487 19.8777C75.8487 19.8677 75.6487 19.8777 75.4587 19.8777C75.2587 19.8777 75.0587 19.8677 74.8687 19.8777C74.4887 19.8977 74.1187 19.9577 73.7387 20.0177C73.9487 19.7977 74.1587 19.4977 74.3587 19.0977ZM86.8187 48.2477C87.5187 48.5277 87.7587 48.8877 87.7487 49.6777C87.7387 51.3278 87.7387 52.9778 87.7487 54.6678V55.1978H75.4587H63.1687V54.6678C63.1687 52.9778 63.1687 51.3278 63.1687 49.6777C63.1687 48.8877 63.3987 48.5277 64.0987 48.2477C64.8287 47.9577 65.5587 47.6478 66.2787 47.3377C67.2987 46.9077 68.3087 46.4777 69.3387 46.0877C71.4687 45.2777 72.7887 43.9778 73.1787 42.4378C73.5687 42.3678 73.9287 42.1577 74.1687 41.7977C74.6287 41.1077 74.4387 40.1777 73.7387 39.7178L72.3387 38.7977C72.2287 38.6477 72.1287 38.5177 72.0387 38.4178C71.8587 38.2178 71.6787 38.0278 71.4987 37.8278C70.3487 36.5778 69.3487 35.4977 69.2387 33.9678C69.0787 31.7578 69.1387 29.5577 69.2287 27.5177C69.2987 25.9577 70.3687 24.9277 71.2487 24.3377C71.5387 24.1477 71.8287 23.9777 72.1187 23.8277C73.2487 23.2977 74.3687 23.0377 75.4587 23.0277C76.5487 23.0377 77.6687 23.2977 78.7987 23.8277C79.0887 23.9777 79.3787 24.1477 79.6687 24.3377C80.5587 24.9277 81.6287 25.9577 81.6887 27.5177C81.7787 29.5577 81.8387 31.7578 81.6787 33.9678C81.5687 35.5078 80.5687 36.5778 79.4187 37.8278C79.2387 38.0177 79.0587 38.2178 78.8787 38.4178C78.8187 38.4878 78.7387 38.5878 78.6587 38.6878L77.0987 39.7178C76.4087 40.1777 76.2187 41.1077 76.6687 41.7977C76.9187 42.1777 77.3187 42.3978 77.7387 42.4478C78.1287 43.9777 79.4487 45.2777 81.5687 46.0877C82.5887 46.4777 83.5987 46.9077 84.6287 47.3377C85.3487 47.6478 86.0787 47.9478 86.8087 48.2477H86.8187Z" fill="#7098D5"/>
<path d="M54.3784 2.88782C54.7484 2.93782 55.1284 2.92782 55.4984 2.92782C66.4584 2.92782 77.4184 2.92782 88.3784 2.92782C91.3284 2.92782 93.0184 4.61782 93.0184 7.55782V26.2378C93.0184 26.5478 92.9884 26.8678 93.0484 27.1678C93.1884 27.9078 93.6684 28.3378 94.4084 28.3478C95.1484 28.3578 95.6384 27.9278 95.7984 27.1978C95.8584 26.9278 95.8284 26.6378 95.8284 26.3578C95.8284 20.0978 95.8284 13.8378 95.8284 7.58782C95.8284 3.04782 92.8984 0.127821 88.3384 0.127821C82.9084 0.127821 77.4984 0.127821 72.0784 0.127821C66.5084 0.127821 60.9284 0.127821 55.3584 0.127821C55.0484 0.127821 54.7384 0.117821 54.4284 0.147821C53.6284 0.227821 53.1684 0.687821 53.1584 1.48782C53.1484 2.28782 53.5884 2.76782 54.3784 2.87782V2.88782Z" fill="#7098D5"/>
<path d="M32.5588 15.5379C31.5988 15.5179 30.6288 15.5079 29.6688 15.5379C28.7388 15.5679 28.1888 16.0779 28.1888 16.9879C28.1688 20.3779 28.1688 23.7679 28.1888 27.1579C28.1888 28.0679 28.7488 28.5679 29.6788 28.5979C30.2988 28.6279 30.9288 28.5979 31.5488 28.5979C32.0488 28.5979 32.5488 28.6079 33.0388 28.5979C34.7788 28.5579 36.0988 27.7779 36.8388 26.1979C37.5788 24.6179 37.3688 23.0979 36.2488 21.7579C35.9288 21.3679 35.8788 21.0979 36.0588 20.6179C36.9988 18.1079 35.2588 15.5979 32.5688 15.5279L32.5588 15.5379ZM30.9988 18.3579C31.8088 18.4379 32.6888 17.9679 33.3188 18.7779C33.4788 18.9879 33.4988 19.4879 33.3688 19.7179C32.7988 20.6579 31.8588 20.0679 30.9988 20.2979V18.3579ZM33.2288 25.7779C32.5288 25.8479 31.8088 25.7979 30.9988 25.7979V23.1179C31.7988 23.1179 32.5888 23.0479 33.3688 23.1379C34.0688 23.2179 34.4388 23.7679 34.4188 24.4679C34.3988 25.2079 33.9688 25.7079 33.2288 25.7779Z" fill="#7098D5"/>
<path d="M17.2581 27.6078C17.5581 26.1178 18.4681 25.8578 19.7381 26.0378C19.8881 26.0578 20.0481 26.0578 20.2081 26.0378C21.5781 25.8278 22.6581 26.0678 22.8881 27.6978C22.9081 27.8078 22.9781 27.9778 23.0581 28.0178C23.5781 28.2078 24.1581 28.5778 24.6181 28.4578C25.0581 28.3478 25.3781 27.7178 25.7481 27.3178C25.6881 27.2578 25.6281 27.2078 25.5781 27.1478C25.5581 27.0278 25.5581 26.8978 25.5181 26.7778C24.2281 23.3478 22.9681 19.8978 21.5781 16.5078C21.3881 16.0478 20.5981 15.6678 20.0281 15.5778C19.2981 15.4578 18.7481 15.9778 18.4781 16.6778C17.2081 19.9878 15.9481 23.2978 14.7081 26.6178C14.3881 27.4778 14.7381 28.2378 15.5081 28.5178C16.2281 28.7778 17.0981 28.4578 17.2781 27.6078H17.2581ZM20.0681 20.3178C20.4781 21.3878 20.7981 22.2478 21.1481 23.1878H18.9881C19.3281 22.2778 19.6481 21.4178 20.0681 20.3178Z" fill="#7098D5"/>
<path d="M61.3585 20.5879C62.0285 18.5779 60.9785 16.5579 59.0185 15.8279C57.0885 15.1079 54.9485 15.9479 54.0385 17.7979C53.4685 18.9579 53.6085 19.8179 54.4285 20.2579C55.2585 20.6979 55.9085 20.3379 56.5285 19.0979C56.8485 18.4479 57.3685 18.1879 58.0685 18.4679C58.7485 18.7379 58.9085 19.3079 58.6385 19.9279C58.3985 20.4979 58.0685 21.0379 57.7185 21.5479C56.6285 23.1379 55.4785 24.6879 54.4085 26.2979C53.6885 27.3679 54.2485 28.5179 55.5185 28.5679C57.1985 28.6279 58.8885 28.6079 60.5685 28.5679C61.4485 28.5479 61.9885 27.9479 61.9785 27.1479C61.9685 26.3479 61.4285 25.8179 60.5185 25.7879C59.8185 25.7579 59.1085 25.7879 58.2085 25.7879C58.8585 24.8579 59.4385 24.0979 59.9285 23.2879C60.4585 22.4179 61.0485 21.5479 61.3685 20.5879H61.3585Z" fill="#7098D5"/>
<path d="M47.9788 18.3978C47.9988 18.7578 48.0188 19.0378 48.0188 19.3078C48.0188 21.8578 48.0188 24.4078 48.0288 26.9578C48.0288 27.9278 48.5688 28.5278 49.3588 28.5678C50.1688 28.6078 50.8088 27.9678 50.8188 26.9778C50.8388 23.6778 50.8288 20.3778 50.8188 17.0878C50.8188 16.2678 50.4088 15.6778 49.5788 15.5878C48.7488 15.4978 47.8988 15.4978 47.0688 15.5878C46.2988 15.6678 45.8288 16.1878 45.8588 16.9978C45.8888 17.7878 46.3588 18.2378 47.1488 18.3378C47.3888 18.3678 47.6388 18.3678 47.9788 18.3978Z" fill="#7098D5"/>
<path d="M12.8281 11.3578C12.0381 11.3178 11.3682 11.9178 11.3482 12.6978C11.3282 13.4378 11.9181 14.0678 12.6681 14.1078C13.4581 14.1478 14.1181 13.5478 14.1381 12.7678C14.1581 12.0178 13.5781 11.3978 12.8281 11.3578Z" fill="#7098D5"/>
<path d="M84.5985 12.7279C84.5985 11.9479 83.9485 11.3279 83.1585 11.3579C82.4085 11.3779 81.8085 11.9879 81.8185 12.7379C81.8185 13.5179 82.4685 14.1379 83.2685 14.1079C84.0185 14.0779 84.6085 13.4779 84.6085 12.7279H84.5985Z" fill="#7098D5"/>
<path d="M11.3578 31.4278C11.3578 32.1678 11.9678 32.7778 12.7178 32.7878C13.5078 32.8078 14.1478 32.1778 14.1378 31.3978C14.1378 30.6478 13.5278 30.0578 12.7778 30.0378C11.9878 30.0178 11.3378 30.6478 11.3478 31.4278H11.3578Z" fill="#7098D5"/>
</g>
<defs>
<clipPath id="clip0_634_368">
<rect width="95.69" height="58.22" fill="white" transform="translate(0.138672 0.127808)"/>
</clipPath>
</defs>
</svg>
