<svg width="16" height="17" viewBox="0 0 16 17" fill="none" xmlns="http://www.w3.org/2000/svg">
<path d="M10.5 14.2349H3.5C3.36739 14.2349 3.24021 14.1822 3.14645 14.0884C3.05268 13.9946 3 13.8675 3 13.7349V4.73486C3 4.60226 3.05268 4.47508 3.14645 4.38131C3.24021 4.28754 3.36739 4.23486 3.5 4.23486H8.5L11 6.73486V13.7349C11 13.8675 10.9473 13.9946 10.8536 14.0884C10.7598 14.1822 10.6326 14.2349 10.5 14.2349Z" stroke="#7098D5" stroke-linecap="round" stroke-linejoin="round"/>
<path d="M5 4.23486V2.73486C5 2.60226 5.05268 2.47508 5.14645 2.38131C5.24021 2.28754 5.36739 2.23486 5.5 2.23486H10.5L13 4.73486V11.7349C13 11.8675 12.9473 11.9946 12.8536 12.0884C12.7598 12.1822 12.6326 12.2349 12.5 12.2349H11" stroke="#7098D5" stroke-linecap="round" stroke-linejoin="round"/>
<path d="M5.5 9.73486H8.5" stroke="#7098D5" stroke-linecap="round" stroke-linejoin="round"/>
<path d="M5.5 11.7349H8.5" stroke="#7098D5" stroke-linecap="round" stroke-linejoin="round"/>
</svg>
