<svg width="17" height="17" viewBox="0 0 17 17" fill="none" xmlns="http://www.w3.org/2000/svg">
<path d="M11.0879 14.2618H4.08789C3.95528 14.2618 3.82811 14.2092 3.73434 14.1154C3.64057 14.0216 3.58789 13.8944 3.58789 13.7618V4.76184C3.58789 4.62923 3.64057 4.50206 3.73434 4.40829C3.82811 4.31452 3.95528 4.26184 4.08789 4.26184H9.08789L11.5879 6.76184V13.7618C11.5879 13.8944 11.5352 14.0216 11.4414 14.1154C11.3477 14.2092 11.2205 14.2618 11.0879 14.2618Z" stroke="white" stroke-linecap="round" stroke-linejoin="round"/>
<path d="M5.58789 4.26184V2.76184C5.58789 2.62923 5.64057 2.50206 5.73434 2.40829C5.82811 2.31452 5.95528 2.26184 6.08789 2.26184H11.0879L13.5879 4.76184V11.7618C13.5879 11.8944 13.5352 12.0216 13.4414 12.1154C13.3477 12.2092 13.2205 12.2618 13.0879 12.2618H11.5879" stroke="white" stroke-linecap="round" stroke-linejoin="round"/>
<path d="M6.08789 9.76184H9.08789" stroke="white" stroke-linecap="round" stroke-linejoin="round"/>
<path d="M6.08789 11.7618H9.08789" stroke="white" stroke-linecap="round" stroke-linejoin="round"/>
</svg>
