<svg width="14" height="13" viewBox="0 0 14 13" fill="none" xmlns="http://www.w3.org/2000/svg">
<g clip-path="url(#clip0_205_277)">
<path d="M0 9.76151C0.0666728 9.16294 0.388982 8.67145 0.686765 8.16908C0.938601 7.74386 1.18802 7.31695 1.43813 6.89071C2.489 5.10046 3.54161 3.31123 4.59006 1.51962C4.97248 0.866334 5.52383 0.455055 6.28314 0.309238C7.14401 0.144047 8.15896 0.531532 8.62083 1.26436C9.11587 2.04986 9.57567 2.85679 10.0462 3.65691C11.0376 5.34247 12.0249 7.03041 13.0161 8.71598C13.3363 9.26083 13.4548 9.83526 13.3187 10.4566C13.0813 11.5399 12.1106 12.3023 10.9461 12.306C9.69174 12.3101 8.43774 12.307 7.18339 12.307C5.60259 12.307 4.02179 12.3077 2.44099 12.307C1.67926 12.3067 1.04086 12.0358 0.55031 11.4545C0.260128 11.1106 0.0884365 10.7132 0.0231455 10.271C0.0183091 10.238 0.00794547 10.2058 0 10.1731C0 10.0361 0 9.89883 0 9.76185L0 9.76151ZM6.6659 11.2458C8.07639 11.2458 9.48689 11.2452 10.8977 11.2462C11.2988 11.2465 11.6525 11.1344 11.932 10.84C12.35 10.3998 12.4108 9.80705 12.092 9.26355C10.9053 7.23979 9.718 5.21671 8.52998 3.19363C8.27538 2.76025 8.03252 2.31906 7.75754 1.89861C7.48221 1.47747 7.0649 1.29937 6.55881 1.34559C6.08761 1.38842 5.76046 1.643 5.52763 2.04069C4.41872 3.93563 3.30497 5.82785 2.19364 7.72143C1.86546 8.2809 1.52518 8.83426 1.21807 9.40495C0.988347 9.83153 1.03429 10.2686 1.30202 10.6731C1.57286 11.082 1.97497 11.2469 2.45999 11.2465C3.86184 11.2455 5.2637 11.2462 6.66556 11.2462L6.6659 11.2458Z" fill="#7098D5"/>
<path d="M7.36911 4.7802C7.31591 5.68161 7.26237 6.58268 7.20951 7.4841C7.20226 7.60782 7.20779 7.73324 7.18741 7.85459C7.14526 8.1017 6.92935 8.27097 6.68028 8.26723C6.43155 8.26349 6.21875 8.10136 6.19042 7.85459C6.15173 7.51911 6.13964 7.18091 6.11822 6.84373C6.07469 6.15611 6.03566 5.46849 5.98937 4.78122C5.95033 4.20577 6.47231 3.79891 6.97081 4.02698C7.2945 4.17518 7.39053 4.45049 7.36946 4.7802H7.36911Z" fill="#7098D5"/>
<path d="M6.67385 10.0791C6.29385 10.0696 5.99642 9.76031 6.00609 9.38574C6.01542 9.02205 6.3322 8.72565 6.70322 8.73279C7.08115 8.73993 7.37271 9.05128 7.36062 9.43401C7.34887 9.79872 7.04004 10.0887 6.67385 10.0795V10.0791Z" fill="#7098D5"/>
</g>
<defs>
<clipPath id="clip0_205_277">
<rect width="13.3743" height="12.0369" fill="white" transform="translate(0 0.271729)"/>
</clipPath>
</defs>
</svg>
