<svg width="14" height="14" viewBox="0 0 14 14" fill="none" xmlns="http://www.w3.org/2000/svg">
<g clip-path="url(#clip0_44_1208)">
<path d="M0.587891 10.4713C0.654563 9.87278 0.976873 9.38129 1.27466 8.87892C1.52649 8.4537 1.77591 8.02679 2.02602 7.60055C3.07689 5.8103 4.1295 4.02107 5.17795 2.22946C5.56037 1.57617 6.11172 1.16489 6.87103 1.01908C7.7319 0.853886 8.74685 1.24137 9.20872 1.97419C9.70376 2.7597 10.1636 3.56662 10.6341 4.36675C11.6255 6.05231 12.6128 7.74025 13.6039 9.42581C13.9242 9.97067 14.0427 10.5451 13.9066 11.1664C13.6692 12.2497 12.6985 13.0121 11.534 13.0158C10.2796 13.0199 9.02563 13.0169 7.77128 13.0169C6.19048 13.0169 4.60968 13.0175 3.02888 13.0169C2.26715 13.0165 1.62875 12.7456 1.1382 12.1644C0.848018 11.8204 0.676327 11.4231 0.611036 10.9809C0.6062 10.9479 0.595836 10.9156 0.587891 10.883C0.587891 10.746 0.587891 10.6087 0.587891 10.4717L0.587891 10.4713ZM7.25379 11.9557C8.66428 11.9557 10.0748 11.955 11.4856 11.956C11.8867 11.9564 12.2404 11.8442 12.5199 11.5498C12.9379 11.1097 12.9987 10.5169 12.6799 9.97339C11.4932 7.94963 10.3059 5.92655 9.11787 3.90347C8.86327 3.47009 8.62041 3.0289 8.34543 2.60845C8.0701 2.18731 7.65279 2.0092 7.1467 2.05543C6.6755 2.09826 6.34835 2.35284 6.11552 2.75053C5.00661 4.64547 3.89286 6.53769 2.78153 8.43127C2.45335 8.99074 2.11307 9.5441 1.80597 10.1148C1.57624 10.5414 1.62218 10.9785 1.88991 11.383C2.16075 11.7919 2.56286 11.9567 3.04788 11.9564C4.44973 11.9553 5.85159 11.956 7.25345 11.956L7.25379 11.9557Z" fill="white"/>
<path d="M7.95701 5.48997C7.90381 6.39139 7.85026 7.29246 7.79741 8.19388C7.79015 8.3176 7.79568 8.44302 7.7753 8.56437C7.73315 8.81147 7.51724 8.98074 7.26817 8.977C7.01944 8.97327 6.80664 8.81113 6.77831 8.56437C6.73962 8.22889 6.72753 7.89069 6.70611 7.55351C6.66259 6.86589 6.62355 6.17827 6.57726 5.49099C6.53822 4.91554 7.0602 4.50868 7.5587 4.73676C7.88239 4.88495 7.97842 5.16027 7.95735 5.48997H7.95701Z" fill="white"/>
<path d="M7.26174 10.789C6.88174 10.7795 6.58431 10.4702 6.59398 10.0956C6.60331 9.73195 6.92009 9.43555 7.29111 9.44269C7.66904 9.44983 7.9606 9.76118 7.94851 10.1439C7.93676 10.5086 7.62793 10.7986 7.26174 10.7894V10.789Z" fill="white"/>
</g>
<defs>
<clipPath id="clip0_44_1208">
<rect width="13.3743" height="12.0369" fill="white" transform="translate(0.587891 0.981567)"/>
</clipPath>
</defs>
</svg>
