<svg width="16" height="17" viewBox="0 0 16 17" fill="none" xmlns="http://www.w3.org/2000/svg">
<path d="M9.5 7.23486H12" stroke="#7098D5" stroke-linecap="round" stroke-linejoin="round"/>
<path d="M9.5 9.23486H12" stroke="#7098D5" stroke-linecap="round" stroke-linejoin="round"/>
<path d="M5.75684 9.23486C6.58526 9.23486 7.25684 8.56329 7.25684 7.73486C7.25684 6.90644 6.58526 6.23486 5.75684 6.23486C4.92841 6.23486 4.25684 6.90644 4.25684 7.73486C4.25684 8.56329 4.92841 9.23486 5.75684 9.23486Z" stroke="#7098D5" stroke-linecap="round" stroke-linejoin="round"/>
<path d="M3.81934 10.7349C3.92949 10.3047 4.17969 9.92336 4.53049 9.65106C4.8813 9.37876 5.31275 9.23096 5.75684 9.23096C6.20092 9.23096 6.63238 9.37876 6.98318 9.65106C7.33399 9.92336 7.58419 10.3047 7.69434 10.7349" stroke="#7098D5" stroke-linecap="round" stroke-linejoin="round"/>
<path d="M13.5 3.23486H2.5C2.22386 3.23486 2 3.45872 2 3.73486V12.7349C2 13.011 2.22386 13.2349 2.5 13.2349H13.5C13.7761 13.2349 14 13.011 14 12.7349V3.73486C14 3.45872 13.7761 3.23486 13.5 3.23486Z" stroke="#7098D5" stroke-linecap="round" stroke-linejoin="round"/>
</svg>
