<svg width="17" height="17" viewBox="0 0 17 17" fill="none" xmlns="http://www.w3.org/2000/svg">
<path d="M10.0879 7.5H12.5879" stroke="white" stroke-linecap="round" stroke-linejoin="round"/>
<path d="M10.0879 9.5H12.5879" stroke="white" stroke-linecap="round" stroke-linejoin="round"/>
<path d="M6.34473 9.5C7.17315 9.5 7.84473 8.82843 7.84473 8C7.84473 7.17157 7.17315 6.5 6.34473 6.5C5.5163 6.5 4.84473 7.17157 4.84473 8C4.84473 8.82843 5.5163 9.5 6.34473 9.5Z" stroke="white" stroke-linecap="round" stroke-linejoin="round"/>
<path d="M4.40723 11C4.51738 10.5698 4.76758 10.1885 5.11838 9.9162C5.46919 9.6439 5.90064 9.49609 6.34473 9.49609C6.78881 9.49609 7.22027 9.6439 7.57107 9.9162C7.92188 10.1885 8.17208 10.5698 8.28223 11" stroke="white" stroke-linecap="round" stroke-linejoin="round"/>
<path d="M14.0879 3.5H3.08789C2.81175 3.5 2.58789 3.72386 2.58789 4V13C2.58789 13.2761 2.81175 13.5 3.08789 13.5H14.0879C14.364 13.5 14.5879 13.2761 14.5879 13V4C14.5879 3.72386 14.364 3.5 14.0879 3.5Z" stroke="white" stroke-linecap="round" stroke-linejoin="round"/>
</svg>
