<svg width="17" height="17" viewBox="0 0 17 17" fill="none" xmlns="http://www.w3.org/2000/svg">
<path d="M11.5879 2.26184V8.26184L9.58789 6.76184L7.58789 8.26184V2.26184" stroke="white" stroke-linecap="round" stroke-linejoin="round"/>
<path d="M3.5879 13.7619C3.58708 13.5646 3.62531 13.3692 3.7004 13.1869C3.77549 13.0045 3.88595 12.8388 4.0254 12.6994C4.16485 12.5599 4.33054 12.4494 4.5129 12.3744C4.69526 12.2993 4.89069 12.261 5.0879 12.2619H13.5879V2.26185H5.0879C4.89069 2.26103 4.69526 2.29926 4.5129 2.37435C4.33054 2.44944 4.16485 2.5599 4.0254 2.69935C3.88595 2.8388 3.77549 3.00449 3.7004 3.18685C3.62531 3.36921 3.58708 3.56464 3.5879 3.76185V13.7619Z" stroke="white" stroke-linecap="round" stroke-linejoin="round"/>
<path d="M3.58789 13.7618V14.2618H12.5879" stroke="white" stroke-linecap="round" stroke-linejoin="round"/>
</svg>
