<svg width="16" height="17" viewBox="0 0 16 17" fill="none" xmlns="http://www.w3.org/2000/svg">
<path d="M11 2.23486V8.23486L9 6.73486L7 8.23486V2.23486" stroke="#7098D5" stroke-linecap="round" stroke-linejoin="round"/>
<path d="M3.00001 13.7349C2.99919 13.5377 3.03742 13.3422 3.11251 13.1599C3.1876 12.9775 3.29806 12.8118 3.43751 12.6724C3.57696 12.5329 3.74265 12.4225 3.92501 12.3474C4.10737 12.2723 4.3028 12.234 4.50001 12.2349H13V2.23488H4.50001C4.3028 2.23405 4.10737 2.27228 3.92501 2.34737C3.74265 2.42246 3.57696 2.53292 3.43751 2.67237C3.29806 2.81183 3.1876 2.97751 3.11251 3.15987C3.03742 3.34224 2.99919 3.53766 3.00001 3.73488V13.7349Z" stroke="#7098D5" stroke-linecap="round" stroke-linejoin="round"/>
<path d="M3 13.7349V14.2349H12" stroke="#7098D5" stroke-linecap="round" stroke-linejoin="round"/>
</svg>
