<svg width="17" height="12" viewBox="0 0 17 12" fill="none" xmlns="http://www.w3.org/2000/svg">
<path d="M15.1096 0.734863H1.77626C1.46943 0.734863 1.2207 0.983594 1.2207 1.29042V2.95709C1.2207 3.26391 1.46943 3.51264 1.77626 3.51264H15.1096C15.4164 3.51264 15.6651 3.26391 15.6651 2.95709V1.29042C15.6651 0.983594 15.4164 0.734863 15.1096 0.734863Z" stroke="white" stroke-linecap="round" stroke-linejoin="round"/>
<path d="M14.5543 3.5127V10.1794C14.5543 10.3267 14.4957 10.468 14.3915 10.5722C14.2873 10.6764 14.146 10.7349 13.9987 10.7349H2.88759C2.74024 10.7349 2.59894 10.6764 2.49475 10.5722C2.39056 10.468 2.33203 10.3267 2.33203 10.1794V3.5127" stroke="white" stroke-linecap="round" stroke-linejoin="round"/>
<path d="M6.77539 6.29041H10.1087" stroke="white" stroke-linecap="round" stroke-linejoin="round"/>
</svg>
