<?xml version="1.0" encoding="utf-8"?>
<!-- Generator: Adobe Illustrator 27.3.1, SVG Export Plug-In . SVG Version: 6.00 Build 0)  -->
<svg version="1.1" id="Layer_1" xmlns="http://www.w3.org/2000/svg" xmlns:xlink="http://www.w3.org/1999/xlink" x="0px" y="0px"
	 viewBox="0 0 13 11" style="enable-background:new 0 0 13 11;" xml:space="preserve">
<style type="text/css">
	.st0{fill-rule:evenodd;clip-rule:evenodd;fill:#FFFFFF;}
</style>
<path class="st0" d="M1.2,1.5L1.2,1.5l10.6,0l0,0V3l0,0h-0.4h0h0H1.6h0h0H1.2l0,0V1.5z M12.8,3c0,0.5-0.3,1-0.9,1v5.5
	c0,0.2-0.1,0.5-0.3,0.7c-0.2,0.2-0.4,0.3-0.7,0.3H2c-0.3,0-0.5-0.1-0.7-0.3C1.2,10,1.1,9.8,1.1,9.5V4C0.5,4,0.2,3.5,0.2,3V1.5
	c0-0.5,0.4-1,0.9-1h10.7c0.6,0,0.9,0.5,0.9,1V3z M2.1,4h8.8v5.5l0,0H2.1l0,0V4z M5.2,5.5C4.9,5.5,4.7,5.7,4.7,6
	c0,0.3,0.2,0.5,0.5,0.5h2.7c0.3,0,0.5-0.2,0.5-0.5c0-0.3-0.2-0.5-0.5-0.5H5.2z"/>
</svg>
