<svg width="17" height="16" viewBox="0 0 17 16" fill="none" xmlns="http://www.w3.org/2000/svg">
<path d="M1.58789 7.5H15.5879" stroke="white" stroke-linecap="round" stroke-linejoin="round"/>
<path d="M14.5879 11.5V13C14.5879 13.1326 14.5352 13.2598 14.4414 13.3536C14.3477 13.4473 14.2205 13.5 14.0879 13.5H12.5879C12.4553 13.5 12.3281 13.4473 12.2343 13.3536C12.1406 13.2598 12.0879 13.1326 12.0879 13V11.5" stroke="white" stroke-linecap="round" stroke-linejoin="round"/>
<path d="M5.08789 11.5V13C5.08789 13.1326 5.03521 13.2598 4.94144 13.3536C4.84768 13.4473 4.7205 13.5 4.58789 13.5H3.08789C2.95528 13.5 2.82811 13.4473 2.73434 13.3536C2.64057 13.2598 2.58789 13.1326 2.58789 13V11.5" stroke="white" stroke-linecap="round" stroke-linejoin="round"/>
<path d="M4.58789 9.5H5.58789" stroke="white" stroke-linecap="round" stroke-linejoin="round"/>
<path d="M11.5879 9.5H12.5879" stroke="white" stroke-linecap="round" stroke-linejoin="round"/>
<path d="M14.5879 7.5L12.7191 3.3C12.6804 3.21115 12.6166 3.13548 12.5356 3.08222C12.4546 3.02895 12.3598 3.00039 12.2629 3H4.91289C4.81594 3.00039 4.7212 3.02895 4.6402 3.08222C4.55919 3.13548 4.49542 3.21115 4.45664 3.3L2.58789 7.5V11.5H14.5879V7.5Z" stroke="white" stroke-linecap="round" stroke-linejoin="round"/>
</svg>
