<svg width="18" height="18" viewBox="0 0 18 18" fill="none" xmlns="http://www.w3.org/2000/svg">
<path d="M7.75977 10.8599C9.96028 10.8599 11.7441 9.076 11.7441 6.87549C11.7441 4.67498 9.96028 2.89111 7.75977 2.89111C5.55926 2.89111 3.77539 4.67498 3.77539 6.87549C3.77539 9.076 5.55926 10.8599 7.75977 10.8599Z" stroke="white" stroke-miterlimit="10"/>
<path d="M2.0625 13.5161C2.7606 12.6841 3.63246 12.0151 4.61679 11.556C5.60113 11.097 6.67405 10.8591 7.76016 10.8591C8.84626 10.8591 9.91919 11.097 10.9035 11.556C11.8879 12.0151 12.7597 12.6841 13.4578 13.5161" stroke="white" stroke-linecap="round" stroke-linejoin="round"/>
<path d="M15.1973 10.3286C15.7841 10.3286 16.2598 9.85292 16.2598 9.26611C16.2598 8.67931 15.7841 8.20361 15.1973 8.20361C14.6105 8.20361 14.1348 8.67931 14.1348 9.26611C14.1348 9.85292 14.6105 10.3286 15.1973 10.3286Z" stroke="white" stroke-linecap="round" stroke-linejoin="round"/>
<path d="M15.1973 8.20361V7.40674" stroke="white" stroke-linecap="round" stroke-linejoin="round"/>
<path d="M14.2738 8.73486L13.5898 8.33643" stroke="white" stroke-linecap="round" stroke-linejoin="round"/>
<path d="M14.2738 9.79736L13.5898 10.1958" stroke="white" stroke-linecap="round" stroke-linejoin="round"/>
<path d="M15.1973 10.3286V11.1255" stroke="white" stroke-linecap="round" stroke-linejoin="round"/>
<path d="M16.1211 9.79736L16.8051 10.1958" stroke="white" stroke-linecap="round" stroke-linejoin="round"/>
<path d="M16.1211 8.73486L16.8051 8.33643" stroke="white" stroke-linecap="round" stroke-linejoin="round"/>
</svg>
