<svg width="15" height="17" viewBox="0 0 15 17" fill="none" xmlns="http://www.w3.org/2000/svg">
<path fill-rule="evenodd" clip-rule="evenodd" d="M2.34232 15.4495C1.80782 15.8532 1.27484 16.2558 0.814453 16.5H14.6945L12.3921 15.3571H2.46476C2.42396 15.3879 2.38313 15.4187 2.34232 15.4495ZM4.65561 13.4522C4.76524 13.3785 4.86098 13.2852 4.93781 13.1766C5.04756 13.0214 5.11491 12.8403 5.13319 12.6511C5.15203 12.3811 5.14573 12.109 5.13945 11.8376C5.13632 11.7022 5.13319 11.5669 5.13319 11.4322C5.12114 11.3731 5.09164 11.319 5.0485 11.2769C4.58868 10.6491 4.24745 9.94253 4.04162 9.19202C4.01755 9.11086 3.97204 9.0377 3.90988 8.98025C3.80127 8.88351 3.71478 8.7645 3.65632 8.6313C3.59786 8.49811 3.5688 8.35388 3.57112 8.20843V7.0413C3.57004 6.8149 3.64455 6.59461 3.78284 6.41538C3.83229 6.35524 3.86188 6.28125 3.86753 6.2036V4.47173C3.82264 3.98753 3.92882 3.50132 4.17147 3.07994C4.41412 2.65857 4.78133 2.32274 5.22259 2.11864C5.88447 1.80534 6.60761 1.64283 7.33986 1.64283C8.07212 1.64283 8.79525 1.80534 9.45714 2.11864C9.88903 2.31117 10.251 2.63237 10.4935 3.03837C10.736 3.44437 10.8473 3.91537 10.8122 4.38702V6.17536C10.8168 6.25752 10.8463 6.33632 10.8969 6.40126C11.0403 6.58404 11.1197 6.80895 11.1227 7.0413V8.24608C11.1285 8.42359 11.0821 8.59888 10.9892 8.75028C10.8964 8.90168 10.7612 9.02254 10.6005 9.0979C10.5006 9.15092 10.4248 9.24017 10.3887 9.34733C10.1864 9.81794 9.9841 10.2415 9.75355 10.6745C9.56947 10.9308 9.41183 11.2052 9.28305 11.4933C9.24523 11.8185 9.24523 12.147 9.28305 12.4722C9.26801 12.7106 9.32799 12.9478 9.45457 13.1503C9.528 13.2679 9.62171 13.3703 9.73057 13.4534C9.71107 13.3488 9.70455 13.2416 9.7116 13.1343C9.66566 12.7549 9.66566 12.3717 9.7116 11.9923C9.86801 11.6561 10.0595 11.336 10.283 11.0369C10.563 10.5318 10.8087 10.0376 11.0545 9.48858C11.0983 9.36357 11.1903 9.25944 11.3116 9.19758C11.5069 9.10966 11.671 8.96866 11.7837 8.79203C11.8965 8.6154 11.9529 8.41089 11.9459 8.20379V6.79822C11.9422 6.52714 11.8458 6.26475 11.6716 6.0515C11.6102 5.97574 11.5743 5.88381 11.5687 5.78796V3.70155C11.6114 3.1513 11.4762 2.6018 11.1817 2.12813C10.8871 1.65447 10.4476 1.27973 9.92302 1.05511C9.11917 0.689594 8.24092 0.5 7.3516 0.5C6.46227 0.5 5.58402 0.689594 4.78017 1.05511C4.24426 1.29323 3.79828 1.68503 3.50358 2.17663C3.20888 2.66823 3.07993 3.23549 3.13445 3.80038V5.8209C3.12758 5.9115 3.09165 5.99782 3.0316 6.06798C2.86364 6.27708 2.77314 6.53408 2.77445 6.79822V8.15987C2.77164 8.32956 2.80693 8.49783 2.87793 8.65322C2.94894 8.80861 3.05397 8.94747 3.18588 9.06032C3.26137 9.12735 3.31665 9.21271 3.34588 9.30739C3.59586 10.183 4.01028 11.0073 4.56874 11.7397C4.62113 11.7888 4.65696 11.852 4.6716 11.9209C4.6716 12.0781 4.6754 12.2359 4.6792 12.3939C4.68682 12.7105 4.69447 13.0279 4.6716 13.3429C4.6679 13.3796 4.66256 13.4161 4.65561 13.4522Z" fill="#7098D5"/>
</svg>
