<svg width="17" height="18" viewBox="0 0 17 18" fill="none" xmlns="http://www.w3.org/2000/svg">
<path d="M7.17188 10.8599C9.37238 10.8599 11.1562 9.076 11.1562 6.87549C11.1562 4.67498 9.37238 2.89111 7.17188 2.89111C4.97137 2.89111 3.1875 4.67498 3.1875 6.87549C3.1875 9.076 4.97137 10.8599 7.17188 10.8599Z" stroke="#7098D5" stroke-miterlimit="10"/>
<path d="M1.47461 13.5161C2.17271 12.6841 3.04457 12.0151 4.0289 11.556C5.01324 11.097 6.08616 10.8591 7.17227 10.8591C8.25837 10.8591 9.3313 11.097 10.3156 11.556C11.3 12.0151 12.1718 12.6841 12.8699 13.5161" stroke="#7098D5" stroke-linecap="round" stroke-linejoin="round"/>
<path d="M14.6094 10.3286C15.1962 10.3286 15.6719 9.85292 15.6719 9.26611C15.6719 8.67931 15.1962 8.20361 14.6094 8.20361C14.0226 8.20361 13.5469 8.67931 13.5469 9.26611C13.5469 9.85292 14.0226 10.3286 14.6094 10.3286Z" stroke="#7098D5" stroke-linecap="round" stroke-linejoin="round"/>
<path d="M14.6094 8.20361V7.40674" stroke="#7098D5" stroke-linecap="round" stroke-linejoin="round"/>
<path d="M13.6859 8.73486L13.002 8.33643" stroke="#7098D5" stroke-linecap="round" stroke-linejoin="round"/>
<path d="M13.6859 9.79736L13.002 10.1958" stroke="#7098D5" stroke-linecap="round" stroke-linejoin="round"/>
<path d="M14.6094 10.3286V11.1255" stroke="#7098D5" stroke-linecap="round" stroke-linejoin="round"/>
<path d="M15.5332 9.79736L16.2172 10.1958" stroke="#7098D5" stroke-linecap="round" stroke-linejoin="round"/>
<path d="M15.5332 8.73486L16.2172 8.33643" stroke="#7098D5" stroke-linecap="round" stroke-linejoin="round"/>
</svg>
