<svg width="14" height="14" viewBox="0 0 14 14" fill="none" xmlns="http://www.w3.org/2000/svg">
<path d="M12.2698 3.43749C12.5978 4.2033 12.6781 5.0525 12.4994 5.8662C12.3208 6.6799 11.8921 7.41737 11.2735 7.97536C10.6549 8.53335 9.8773 8.88392 9.04954 8.97799C8.22179 9.07207 7.38533 8.90493 6.65729 8.49999L3.15104 12.5625C2.86925 12.8443 2.48705 13.0026 2.08854 13.0026C1.69002 13.0026 1.30783 12.8443 1.02604 12.5625C0.744247 12.2807 0.585938 11.8985 0.585938 11.5C0.585937 11.1015 0.744247 10.7193 1.02604 10.4375L5.08854 6.93124C4.6836 6.2032 4.51646 5.36674 4.61053 4.53899C4.70461 3.71123 5.05518 2.93362 5.61317 2.31501C6.17116 1.6964 6.90862 1.26777 7.72233 1.08912C8.53603 0.910477 9.38523 0.990763 10.151 1.31874L7.52604 3.93749L7.88229 5.70624L9.65104 6.06249L12.2698 3.43749Z" stroke="white" stroke-linecap="round" stroke-linejoin="round"/>
</svg>
