<svg width="17" height="17" viewBox="0 0 17 17" fill="none" xmlns="http://www.w3.org/2000/svg">
<path d="M13.9456 4.67235C14.2735 5.43816 14.3538 6.28736 14.1752 7.10106C13.9965 7.91477 13.5679 8.65224 12.9493 9.21023C12.3307 9.76821 11.5531 10.1188 10.7253 10.2129C9.89757 10.3069 9.06112 10.1398 8.33307 9.73485L4.82682 13.7974C4.54503 14.0791 4.16284 14.2375 3.76432 14.2375C3.36581 14.2375 2.98361 14.0791 2.70182 13.7974C2.42003 13.5156 2.26172 13.1334 2.26172 12.7349C2.26172 12.3363 2.42003 11.9541 2.70182 11.6724L6.76432 8.1661C6.35938 7.43806 6.19224 6.60161 6.28632 5.77385C6.38039 4.9461 6.73096 4.16848 7.28895 3.54987C7.84694 2.93126 8.58441 2.50263 9.39811 2.32399C10.2118 2.14534 11.061 2.22563 11.8268 2.5536L9.20182 5.17235L9.55807 6.9411L11.3268 7.29735L13.9456 4.67235Z" stroke="#7098D5" stroke-linecap="round" stroke-linejoin="round"/>
</svg>
